<?xml version="1.0" encoding="UTF-8" standalone="no"?>
<!DOCTYPE svg PUBLIC "-//W3C//DTD SVG 1.1//EN"
 "http://www.w3.org/Graphics/SVG/1.1/DTD/svg11.dtd">
<!-- Generated by graphviz version 14.1.1 (20251213.1925)
 -->
<!-- Title: bme688_parallel_init Pages: 1 -->
<svg width="289pt" height="960pt"
 viewBox="0.00 0.00 289.00 960.00" xmlns="http://www.w3.org/2000/svg" xmlns:xlink="http://www.w3.org/1999/xlink">
<g id="graph0" class="graph" transform="scale(1 1) rotate(0) translate(4 956)">
<title>bme688_parallel_init</title>
<!-- Node1 -->
<g id="Node000001" class="node">
<title>Node1</title>
<g id="a_Node000001"><a xlink:title="parallel example init">
<polygon fill="#999999" stroke="#666666" points="104.5,-480 0,-480 0,-460 104.5,-460 104.5,-480"/>
<text xml:space="preserve" text-anchor="middle" x="52.25" y="-466.5" font-family="Helvetica,sans-Serif" font-size="10.00">bme688_parallel_init</text>
</a>
</g>
</g>
<!-- Node2 -->
<g id="Node000002" class="node">
<title>Node2</title>
<g id="a_Node000002"><a xlink:href="group__bme688__base__driver.html#gaa1ed2e75dcc1ee8174c43557c7f87694" target="_top" xlink:title="close the chip">
<polygon fill="white" stroke="#666666" points="250.25,-952 171.25,-952 171.25,-932 250.25,-932 250.25,-952"/>
<text xml:space="preserve" text-anchor="middle" x="210.75" y="-938.5" font-family="Helvetica,sans-Serif" font-size="10.00">bme688_deinit</text>
</a>
</g>
</g>
<!-- Node1&#45;&gt;Node2 -->
<g id="edge1_Node000001_Node000002" class="edge">
<title>Node1&#45;&gt;Node2</title>
<g id="a_edge1_Node000001_Node000002"><a xlink:title=" ">
<path fill="none" stroke="#63b8ff" d="M53.79,-480.17C57.19,-540.9 77.67,-855.1 140.5,-923 145.79,-928.72 152.62,-932.78 159.93,-935.64"/>
<polygon fill="#63b8ff" stroke="#63b8ff" points="158.82,-938.96 169.41,-938.6 160.91,-932.28 158.82,-938.96"/>
</a>
</g>
</g>
<!-- Node3 -->
<g id="Node000003" class="node">
<title>Node3</title>
<g id="a_Node000003"><a xlink:href="group__bme688__base__driver.html#ga753c8c9052516654cc156183322ec7a2" target="_top" xlink:title="initialize the chip">
<polygon fill="white" stroke="#666666" points="245,-914 176.5,-914 176.5,-894 245,-894 245,-914"/>
<text xml:space="preserve" text-anchor="middle" x="210.75" y="-900.5" font-family="Helvetica,sans-Serif" font-size="10.00">bme688_init</text>
</a>
</g>
</g>
<!-- Node1&#45;&gt;Node3 -->
<g id="edge2_Node000001_Node000003" class="edge">
<title>Node1&#45;&gt;Node3</title>
<g id="a_edge2_Node000001_Node000003"><a xlink:title=" ">
<path fill="none" stroke="#63b8ff" d="M54,-480.44C58.39,-538.73 82.6,-823.48 140.5,-885 147.13,-892.05 156.11,-896.57 165.4,-899.45"/>
<polygon fill="#63b8ff" stroke="#63b8ff" points="164.31,-902.78 174.86,-901.76 165.98,-895.98 164.31,-902.78"/>
</a>
</g>
</g>
<!-- Node4 -->
<g id="Node000004" class="node">
<title>Node4</title>
<g id="a_Node000004"><a xlink:href="group__bme688__interface__driver.html#gabbd5e3c2cfb83dee9bc85f8af5a2e9b3" target="_top" xlink:title="interface print format data">
<polygon fill="white" stroke="#666666" points="273.12,-876 148.38,-876 148.38,-844 273.12,-844 273.12,-876"/>
<text xml:space="preserve" text-anchor="start" x="156.38" y="-862.5" font-family="Helvetica,sans-Serif" font-size="10.00">bme688_interface_debug</text>
<text xml:space="preserve" text-anchor="middle" x="210.75" y="-850.5" font-family="Helvetica,sans-Serif" font-size="10.00">_print</text>
</a>
</g>
</g>
<!-- Node1&#45;&gt;Node4 -->
<g id="edge3_Node000001_Node000004" class="edge">
<title>Node1&#45;&gt;Node4</title>
<g id="a_edge3_Node000001_Node000004"><a xlink:title=" ">
<path fill="none" stroke="#63b8ff" d="M54.38,-480.16C60.46,-533.36 91,-779.63 140.5,-835 140.86,-835.4 141.23,-835.8 141.61,-836.2"/>
<polygon fill="#63b8ff" stroke="#63b8ff" points="139.29,-838.82 149.21,-842.55 143.78,-833.45 139.29,-838.82"/>
</a>
</g>
</g>
<!-- Node5 -->
<g id="Node000005" class="node">
<title>Node5</title>
<g id="a_Node000005"><a xlink:href="group__bme688__interface__driver.html#ga72691d5cf0ac12f7b9a5dc7ca84ee980" target="_top" xlink:title="interface delay ms">
<polygon fill="white" stroke="#666666" points="281,-826 140.5,-826 140.5,-806 281,-806 281,-826"/>
<text xml:space="preserve" text-anchor="middle" x="210.75" y="-812.5" font-family="Helvetica,sans-Serif" font-size="10.00">bme688_interface_delay_ms</text>
</a>
</g>
</g>
<!-- Node1&#45;&gt;Node5 -->
<g id="edge4_Node000001_Node000005" class="edge">
<title>Node1&#45;&gt;Node5</title>
<g id="a_edge4_Node000001_Node000005"><a xlink:title=" ">
<path fill="none" stroke="#63b8ff" d="M54.64,-480.48C61.54,-531.11 93.72,-749.89 140.5,-797 141.25,-797.75 142.03,-798.48 142.83,-799.18"/>
<polygon fill="#63b8ff" stroke="#63b8ff" points="140.74,-801.99 150.97,-804.77 144.71,-796.22 140.74,-801.99"/>
</a>
</g>
</g>
<!-- Node6 -->
<g id="Node000006" class="node">
<title>Node6</title>
<g id="a_Node000006"><a xlink:href="group__bme688__interface__driver.html#gaebb3c736d1794ece6df6e1d2cb5e8138" target="_top" xlink:title="interface iic bus deinit">
<polygon fill="white" stroke="#666666" points="264.88,-788 156.62,-788 156.62,-756 264.88,-756 264.88,-788"/>
<text xml:space="preserve" text-anchor="start" x="164.62" y="-774.5" font-family="Helvetica,sans-Serif" font-size="10.00">bme688_interface_iic</text>
<text xml:space="preserve" text-anchor="middle" x="210.75" y="-762.5" font-family="Helvetica,sans-Serif" font-size="10.00">_deinit</text>
</a>
</g>
</g>
<!-- Node1&#45;&gt;Node6 -->
<g id="edge5_Node000001_Node000006" class="edge">
<title>Node1&#45;&gt;Node6</title>
<g id="a_edge5_Node000001_Node000006"><a xlink:title=" ">
<path fill="none" stroke="#63b8ff" d="M53.39,-480.42C54.51,-520.59 63.88,-667.14 140.5,-747 142.47,-749.06 144.63,-750.95 146.92,-752.68"/>
<polygon fill="#63b8ff" stroke="#63b8ff" points="144.73,-755.44 155.05,-757.82 148.47,-749.52 144.73,-755.44"/>
</a>
</g>
</g>
<!-- Node7 -->
<g id="Node000007" class="node">
<title>Node7</title>
<g id="a_Node000007"><a xlink:href="group__bme688__interface__driver.html#gaf36f3e2219fb2712a34640d20a23bbce" target="_top" xlink:title="interface iic bus init">
<polygon fill="white" stroke="#666666" points="273.88,-738 147.62,-738 147.62,-718 273.88,-718 273.88,-738"/>
<text xml:space="preserve" text-anchor="middle" x="210.75" y="-724.5" font-family="Helvetica,sans-Serif" font-size="10.00">bme688_interface_iic_init</text>
</a>
</g>
</g>
<!-- Node1&#45;&gt;Node7 -->
<g id="edge6_Node000001_Node000007" class="edge">
<title>Node1&#45;&gt;Node7</title>
<g id="a_edge6_Node000001_Node000007"><a xlink:title=" ">
<path fill="none" stroke="#63b8ff" d="M53.8,-480.43C56.33,-517.49 69.99,-644.07 140.5,-709 141.56,-709.97 142.66,-710.9 143.8,-711.78"/>
<polygon fill="#63b8ff" stroke="#63b8ff" points="141.59,-714.52 151.93,-716.83 145.29,-708.58 141.59,-714.52"/>
</a>
</g>
</g>
<!-- Node8 -->
<g id="Node000008" class="node">
<title>Node8</title>
<g id="a_Node000008"><a xlink:href="group__bme688__interface__driver.html#ga6d0ef4ee3dbeed86926a3639e43715ef" target="_top" xlink:title="interface iic bus read">
<polygon fill="white" stroke="#666666" points="276.88,-700 144.62,-700 144.62,-680 276.88,-680 276.88,-700"/>
<text xml:space="preserve" text-anchor="middle" x="210.75" y="-686.5" font-family="Helvetica,sans-Serif" font-size="10.00">bme688_interface_iic_read</text>
</a>
</g>
</g>
<!-- Node1&#45;&gt;Node8 -->
<g id="edge7_Node000001_Node000008" class="edge">
<title>Node1&#45;&gt;Node8</title>
<g id="a_edge7_Node000001_Node000008"><a xlink:title=" ">
<path fill="none" stroke="#63b8ff" d="M54.56,-480.15C59.35,-513.04 79,-617.66 140.5,-671 141.61,-671.96 142.77,-672.88 143.97,-673.75"/>
<polygon fill="#63b8ff" stroke="#63b8ff" points="142.08,-676.7 152.47,-678.79 145.65,-670.68 142.08,-676.7"/>
</a>
</g>
</g>
<!-- Node9 -->
<g id="Node000009" class="node">
<title>Node9</title>
<g id="a_Node000009"><a xlink:href="group__bme688__interface__driver.html#ga2a4b1f97b248b9d3a2105d49f911aab2" target="_top" xlink:title="interface iic bus write">
<polygon fill="white" stroke="#666666" points="264.88,-662 156.62,-662 156.62,-630 264.88,-630 264.88,-662"/>
<text xml:space="preserve" text-anchor="start" x="164.62" y="-648.5" font-family="Helvetica,sans-Serif" font-size="10.00">bme688_interface_iic</text>
<text xml:space="preserve" text-anchor="middle" x="210.75" y="-636.5" font-family="Helvetica,sans-Serif" font-size="10.00">_write</text>
</a>
</g>
</g>
<!-- Node1&#45;&gt;Node9 -->
<g id="edge8_Node000001_Node000009" class="edge">
<title>Node1&#45;&gt;Node9</title>
<g id="a_edge8_Node000001_Node000009"><a xlink:title=" ">
<path fill="none" stroke="#63b8ff" d="M56.46,-480.45C65.32,-507.59 92.66,-580.98 140.5,-621 142.41,-622.6 144.43,-624.1 146.54,-625.51"/>
<polygon fill="#63b8ff" stroke="#63b8ff" points="144.49,-628.37 154.9,-630.35 148,-622.31 144.49,-628.37"/>
</a>
</g>
</g>
<!-- Node10 -->
<g id="Node000010" class="node">
<title>Node10</title>
<g id="a_Node000010"><a xlink:href="group__bme688__interface__driver.html#gae307cd8eae9843428f27e6e565b58a43" target="_top" xlink:title="interface spi bus deinit">
<polygon fill="white" stroke="#666666" points="266.38,-612 155.12,-612 155.12,-580 266.38,-580 266.38,-612"/>
<text xml:space="preserve" text-anchor="start" x="163.12" y="-598.5" font-family="Helvetica,sans-Serif" font-size="10.00">bme688_interface_spi</text>
<text xml:space="preserve" text-anchor="middle" x="210.75" y="-586.5" font-family="Helvetica,sans-Serif" font-size="10.00">_deinit</text>
</a>
</g>
</g>
<!-- Node1&#45;&gt;Node10 -->
<g id="edge9_Node000001_Node000010" class="edge">
<title>Node1&#45;&gt;Node10</title>
<g id="a_edge9_Node000001_Node000010"><a xlink:title=" ">
<path fill="none" stroke="#63b8ff" d="M59.61,-480.42C72.45,-500.66 103.46,-545.53 140.5,-571 142.09,-572.1 143.74,-573.15 145.43,-574.16"/>
<polygon fill="#63b8ff" stroke="#63b8ff" points="143.66,-577.19 154.13,-578.81 146.96,-571.01 143.66,-577.19"/>
</a>
</g>
</g>
<!-- Node11 -->
<g id="Node000011" class="node">
<title>Node11</title>
<g id="a_Node000011"><a xlink:href="group__bme688__interface__driver.html#gae4186ca9706f29ba17dab0aaa22a7f69" target="_top" xlink:title="interface spi bus init">
<polygon fill="white" stroke="#666666" points="275.38,-562 146.12,-562 146.12,-542 275.38,-542 275.38,-562"/>
<text xml:space="preserve" text-anchor="middle" x="210.75" y="-548.5" font-family="Helvetica,sans-Serif" font-size="10.00">bme688_interface_spi_init</text>
</a>
</g>
</g>
<!-- Node1&#45;&gt;Node11 -->
<g id="edge10_Node000001_Node000011" class="edge">
<title>Node1&#45;&gt;Node11</title>
<g id="a_edge10_Node000001_Node000011"><a xlink:title=" ">
<path fill="none" stroke="#63b8ff" d="M64.8,-480.45C80.72,-494.35 110.84,-518.8 140.5,-533 144.2,-534.77 148.1,-536.41 152.08,-537.9"/>
<polygon fill="#63b8ff" stroke="#63b8ff" points="150.7,-541.13 161.3,-541.06 152.97,-534.51 150.7,-541.13"/>
</a>
</g>
</g>
<!-- Node12 -->
<g id="Node000012" class="node">
<title>Node12</title>
<g id="a_Node000012"><a xlink:href="group__bme688__interface__driver.html#ga86bbeb52c998133476a7de9921fa9495" target="_top" xlink:title="interface spi bus read">
<polygon fill="white" stroke="#666666" points="278.38,-524 143.12,-524 143.12,-504 278.38,-504 278.38,-524"/>
<text xml:space="preserve" text-anchor="middle" x="210.75" y="-510.5" font-family="Helvetica,sans-Serif" font-size="10.00">bme688_interface_spi_read</text>
</a>
</g>
</g>
<!-- Node1&#45;&gt;Node12 -->
<g id="edge11_Node000001_Node000012" class="edge">
<title>Node1&#45;&gt;Node12</title>
<g id="a_edge11_Node000001_Node000012"><a xlink:title=" ">
<path fill="none" stroke="#63b8ff" d="M89.31,-480.43C105.02,-484.95 123.66,-490.28 140.5,-495 146.88,-496.79 153.6,-498.66 160.24,-500.49"/>
<polygon fill="#63b8ff" stroke="#63b8ff" points="159.24,-503.84 169.81,-503.12 161.1,-497.09 159.24,-503.84"/>
</a>
</g>
</g>
<!-- Node13 -->
<g id="Node000013" class="node">
<title>Node13</title>
<g id="a_Node000013"><a xlink:href="group__bme688__interface__driver.html#ga08805bd054323979e5c949889dabccc2" target="_top" xlink:title="interface spi bus write">
<polygon fill="white" stroke="#666666" points="266.38,-486 155.12,-486 155.12,-454 266.38,-454 266.38,-486"/>
<text xml:space="preserve" text-anchor="start" x="163.12" y="-472.5" font-family="Helvetica,sans-Serif" font-size="10.00">bme688_interface_spi</text>
<text xml:space="preserve" text-anchor="middle" x="210.75" y="-460.5" font-family="Helvetica,sans-Serif" font-size="10.00">_write</text>
</a>
</g>
</g>
<!-- Node1&#45;&gt;Node13 -->
<g id="edge12_Node000001_Node000013" class="edge">
<title>Node1&#45;&gt;Node13</title>
<g id="a_edge12_Node000001_Node000013"><a xlink:title=" ">
<path fill="none" stroke="#63b8ff" d="M104.93,-470C117.25,-470 130.58,-470 143.46,-470"/>
<polygon fill="#63b8ff" stroke="#63b8ff" points="143.12,-473.5 153.12,-470 143.12,-466.5 143.12,-473.5"/>
</a>
</g>
</g>
<!-- Node14 -->
<g id="Node000014" class="node">
<title>Node14</title>
<g id="a_Node000014"><a xlink:href="group__bme688__base__driver.html#ga477969958ac7dea878931da6cb8fe9ec" target="_top" xlink:title="parallel config">
<polygon fill="white" stroke="#666666" points="269.75,-436 151.75,-436 151.75,-416 269.75,-416 269.75,-436"/>
<text xml:space="preserve" text-anchor="middle" x="210.75" y="-422.5" font-family="Helvetica,sans-Serif" font-size="10.00">bme688_parallel_config</text>
</a>
</g>
</g>
<!-- Node1&#45;&gt;Node14 -->
<g id="edge13_Node000001_Node000014" class="edge">
<title>Node1&#45;&gt;Node14</title>
<g id="a_edge13_Node000001_Node000014"><a xlink:title=" ">
<path fill="none" stroke="#63b8ff" d="M89.31,-459.57C105.02,-455.05 123.66,-449.72 140.5,-445 146.88,-443.21 153.6,-441.34 160.24,-439.51"/>
<polygon fill="#63b8ff" stroke="#63b8ff" points="161.1,-442.91 169.81,-436.88 159.24,-436.16 161.1,-442.91"/>
</a>
</g>
</g>
<!-- Node15 -->
<g id="Node000015" class="node">
<title>Node15</title>
<g id="a_Node000015"><a xlink:href="group__bme688__base__driver.html#ga1b1a625b7db3c805ffe3a29bac6e042d" target="_top" xlink:title="set the iic address pin">
<polygon fill="white" stroke="#666666" points="266.38,-398 155.12,-398 155.12,-378 266.38,-378 266.38,-398"/>
<text xml:space="preserve" text-anchor="middle" x="210.75" y="-384.5" font-family="Helvetica,sans-Serif" font-size="10.00">bme688_set_addr_pin</text>
</a>
</g>
</g>
<!-- Node1&#45;&gt;Node15 -->
<g id="edge14_Node000001_Node000015" class="edge">
<title>Node1&#45;&gt;Node15</title>
<g id="a_edge14_Node000001_Node000015"><a xlink:title=" ">
<path fill="none" stroke="#63b8ff" d="M64.8,-459.55C80.72,-445.65 110.84,-421.2 140.5,-407 144.2,-405.23 148.1,-403.59 152.08,-402.1"/>
<polygon fill="#63b8ff" stroke="#63b8ff" points="152.97,-405.49 161.3,-398.94 150.7,-398.87 152.97,-405.49"/>
</a>
</g>
</g>
<!-- Node16 -->
<g id="Node000016" class="node">
<title>Node16</title>
<g id="a_Node000016"><a xlink:href="group__bme688__base__driver.html#ga000636080d644b9d2dbf264db5e78e76" target="_top" xlink:title="set filter">
<polygon fill="white" stroke="#666666" points="257.38,-360 164.12,-360 164.12,-340 257.38,-340 257.38,-360"/>
<text xml:space="preserve" text-anchor="middle" x="210.75" y="-346.5" font-family="Helvetica,sans-Serif" font-size="10.00">bme688_set_filter</text>
</a>
</g>
</g>
<!-- Node1&#45;&gt;Node16 -->
<g id="edge15_Node000001_Node000016" class="edge">
<title>Node1&#45;&gt;Node16</title>
<g id="a_edge15_Node000001_Node000016"><a xlink:title=" ">
<path fill="none" stroke="#63b8ff" d="M59.24,-459.64C71.67,-439.1 102.29,-393.12 140.5,-369 144.47,-366.49 148.78,-364.31 153.23,-362.41"/>
<polygon fill="#63b8ff" stroke="#63b8ff" points="154.22,-365.78 162.38,-359.01 151.79,-359.22 154.22,-365.78"/>
</a>
</g>
</g>
<!-- Node17 -->
<g id="Node000017" class="node">
<title>Node17</title>
<g id="a_Node000017"><a xlink:href="group__bme688__base__driver.html#gad207445415770ef82a8c3602e32f115a" target="_top" xlink:title="enable or disable heater off">
<polygon fill="white" stroke="#666666" points="269.38,-322 152.12,-322 152.12,-302 269.38,-302 269.38,-322"/>
<text xml:space="preserve" text-anchor="middle" x="210.75" y="-308.5" font-family="Helvetica,sans-Serif" font-size="10.00">bme688_set_heater_off</text>
</a>
</g>
</g>
<!-- Node1&#45;&gt;Node17 -->
<g id="edge16_Node000001_Node000017" class="edge">
<title>Node1&#45;&gt;Node17</title>
<g id="a_edge16_Node000001_Node000017"><a xlink:title=" ">
<path fill="none" stroke="#63b8ff" d="M56.68,-459.8C65.87,-434.01 93.62,-365.84 140.5,-331 142.08,-329.82 143.73,-328.72 145.44,-327.69"/>
<polygon fill="#63b8ff" stroke="#63b8ff" points="147.02,-330.81 154.35,-323.16 143.85,-324.57 147.02,-330.81"/>
</a>
</g>
</g>
<!-- Node18 -->
<g id="Node000018" class="node">
<title>Node18</title>
<g id="a_Node000018"><a xlink:href="group__bme688__base__driver.html#gaf099d12d1ab712ba537eeb1ecda59fd0" target="_top" xlink:title="set humidity oversampling">
<polygon fill="white" stroke="#666666" points="266.38,-284 155.12,-284 155.12,-252 266.38,-252 266.38,-284"/>
<text xml:space="preserve" text-anchor="start" x="163.12" y="-270.5" font-family="Helvetica,sans-Serif" font-size="10.00">bme688_set_humidity</text>
<text xml:space="preserve" text-anchor="middle" x="210.75" y="-258.5" font-family="Helvetica,sans-Serif" font-size="10.00">_oversampling</text>
</a>
</g>
</g>
<!-- Node1&#45;&gt;Node18 -->
<g id="edge17_Node000001_Node000018" class="edge">
<title>Node1&#45;&gt;Node18</title>
<g id="a_edge17_Node000001_Node000018"><a xlink:title=" ">
<path fill="none" stroke="#63b8ff" d="M55.49,-459.55C62.52,-429.34 86.87,-340.96 140.5,-293 142.11,-291.56 143.8,-290.21 145.57,-288.92"/>
<polygon fill="#63b8ff" stroke="#63b8ff" points="146.96,-292.18 153.62,-283.94 143.27,-286.23 146.96,-292.18"/>
</a>
</g>
</g>
<!-- Node19 -->
<g id="Node000019" class="node">
<title>Node19</title>
<g id="a_Node000019"><a xlink:href="group__bme688__base__driver.html#ga01214bebfbe2d48248817da49080e054" target="_top" xlink:title="set the interface">
<polygon fill="white" stroke="#666666" points="266.75,-234 154.75,-234 154.75,-214 266.75,-214 266.75,-234"/>
<text xml:space="preserve" text-anchor="middle" x="210.75" y="-220.5" font-family="Helvetica,sans-Serif" font-size="10.00">bme688_set_interface</text>
</a>
</g>
</g>
<!-- Node1&#45;&gt;Node19 -->
<g id="edge18_Node000001_Node000019" class="edge">
<title>Node1&#45;&gt;Node19</title>
<g id="a_edge18_Node000001_Node000019"><a xlink:title=" ">
<path fill="none" stroke="#63b8ff" d="M54.02,-459.59C57.26,-423.73 72.9,-304.21 140.5,-243 141.77,-241.85 143.1,-240.77 144.49,-239.75"/>
<polygon fill="#63b8ff" stroke="#63b8ff" points="146.18,-242.82 153,-234.71 142.61,-236.8 146.18,-242.82"/>
</a>
</g>
</g>
<!-- Node20 -->
<g id="Node000020" class="node">
<title>Node20</title>
<g id="a_Node000020"><a xlink:href="group__bme688__base__driver.html#ga3a6d95d200d69c598498cf01de89b341" target="_top" xlink:title="set mode">
<polygon fill="white" stroke="#666666" points="260,-196 161.5,-196 161.5,-176 260,-176 260,-196"/>
<text xml:space="preserve" text-anchor="middle" x="210.75" y="-182.5" font-family="Helvetica,sans-Serif" font-size="10.00">bme688_set_mode</text>
</a>
</g>
</g>
<!-- Node1&#45;&gt;Node20 -->
<g id="edge19_Node000001_Node000020" class="edge">
<title>Node1&#45;&gt;Node20</title>
<g id="a_edge19_Node000001_Node000020"><a xlink:title=" ">
<path fill="none" stroke="#63b8ff" d="M53.37,-459.57C54.43,-420.06 63.63,-278.1 140.5,-205 143.57,-202.08 147.05,-199.6 150.77,-197.49"/>
<polygon fill="#63b8ff" stroke="#63b8ff" points="152.08,-200.74 159.7,-193.39 149.15,-194.38 152.08,-200.74"/>
</a>
</g>
</g>
<!-- Node21 -->
<g id="Node000021" class="node">
<title>Node21</title>
<g id="a_Node000021"><a xlink:href="group__bme688__base__driver.html#gaf1cb055b8479bb18479d5e2c3a3df04a" target="_top" xlink:title="set pressure oversampling">
<polygon fill="white" stroke="#666666" points="266.75,-158 154.75,-158 154.75,-126 266.75,-126 266.75,-158"/>
<text xml:space="preserve" text-anchor="start" x="162.75" y="-144.5" font-family="Helvetica,sans-Serif" font-size="10.00">bme688_set_pressure</text>
<text xml:space="preserve" text-anchor="middle" x="210.75" y="-132.5" font-family="Helvetica,sans-Serif" font-size="10.00">_oversampling</text>
</a>
</g>
</g>
<!-- Node1&#45;&gt;Node21 -->
<g id="edge20_Node000001_Node000021" class="edge">
<title>Node1&#45;&gt;Node21</title>
<g id="a_edge20_Node000001_Node000021"><a xlink:title=" ">
<path fill="none" stroke="#63b8ff" d="M53.06,-459.51C52.87,-416.96 57.83,-255.32 140.5,-167 142.01,-165.39 143.62,-163.88 145.33,-162.47"/>
<polygon fill="#63b8ff" stroke="#63b8ff" points="146.98,-165.59 153.27,-157.06 143.03,-159.81 146.98,-165.59"/>
</a>
</g>
</g>
<!-- Node22 -->
<g id="Node000022" class="node">
<title>Node22</title>
<g id="a_Node000022"><a xlink:href="group__bme688__base__driver.html#ga505dc892644870e991baaa3dc733f1bf" target="_top" xlink:title="enable or disable run gas">
<polygon fill="white" stroke="#666666" points="265.25,-108 156.25,-108 156.25,-88 265.25,-88 265.25,-108"/>
<text xml:space="preserve" text-anchor="middle" x="210.75" y="-94.5" font-family="Helvetica,sans-Serif" font-size="10.00">bme688_set_run_gas</text>
</a>
</g>
</g>
<!-- Node1&#45;&gt;Node22 -->
<g id="edge21_Node000001_Node000022" class="edge">
<title>Node1&#45;&gt;Node22</title>
<g id="a_edge21_Node000001_Node000022"><a xlink:title=" ">
<path fill="none" stroke="#63b8ff" d="M54.39,-459.76C60.43,-407.23 90.37,-168.42 140.5,-117 142.27,-115.19 144.19,-113.54 146.23,-112.05"/>
<polygon fill="#63b8ff" stroke="#63b8ff" points="147.67,-115.27 154.54,-107.2 144.14,-109.22 147.67,-115.27"/>
</a>
</g>
</g>
<!-- Node23 -->
<g id="Node000023" class="node">
<title>Node23</title>
<g id="a_Node000023"><a xlink:href="group__bme688__base__driver.html#ga64e142b37dbf5f9a8c2be44604d81c16" target="_top" xlink:title="set spi wire">
<polygon fill="white" stroke="#666666" points="266,-70 155.5,-70 155.5,-50 266,-50 266,-70"/>
<text xml:space="preserve" text-anchor="middle" x="210.75" y="-56.5" font-family="Helvetica,sans-Serif" font-size="10.00">bme688_set_spi_wire</text>
</a>
</g>
</g>
<!-- Node1&#45;&gt;Node23 -->
<g id="edge22_Node000001_Node000023" class="edge">
<title>Node1&#45;&gt;Node23</title>
<g id="a_edge22_Node000001_Node000023"><a xlink:title=" ">
<path fill="none" stroke="#63b8ff" d="M54.12,-459.79C59.1,-404.03 85.56,-136.65 140.5,-79 142.05,-77.38 143.72,-75.89 145.49,-74.52"/>
<polygon fill="#63b8ff" stroke="#63b8ff" points="147.07,-77.66 153.78,-69.46 143.42,-71.69 147.07,-77.66"/>
</a>
</g>
</g>
<!-- Node24 -->
<g id="Node000024" class="node">
<title>Node24</title>
<g id="a_Node000024"><a xlink:href="group__bme688__base__driver.html#ga3583f4268d03e5c2539e36727e91605a" target="_top" xlink:title="set temperature oversampling">
<polygon fill="white" stroke="#666666" points="273.88,-32 147.62,-32 147.62,0 273.88,0 273.88,-32"/>
<text xml:space="preserve" text-anchor="start" x="155.62" y="-18.5" font-family="Helvetica,sans-Serif" font-size="10.00">bme688_set_temperature</text>
<text xml:space="preserve" text-anchor="middle" x="210.75" y="-6.5" font-family="Helvetica,sans-Serif" font-size="10.00">_oversampling</text>
</a>
</g>
</g>
<!-- Node1&#45;&gt;Node24 -->
<g id="edge23_Node000001_Node000024" class="edge">
<title>Node1&#45;&gt;Node24</title>
<g id="a_edge23_Node000001_Node000024"><a xlink:title=" ">
<path fill="none" stroke="#63b8ff" d="M54,-459.67C58.47,-400.72 83.36,-107.14 140.5,-41 140.86,-40.59 141.22,-40.18 141.59,-39.79"/>
<polygon fill="#63b8ff" stroke="#63b8ff" points="143.78,-42.52 149.1,-33.36 139.23,-37.2 143.78,-42.52"/>
</a>
</g>
</g>
</g>
</svg>
