<?xml version="1.0" encoding="UTF-8" standalone="no"?>
<!DOCTYPE svg PUBLIC "-//W3C//DTD SVG 1.1//EN"
 "http://www.w3.org/Graphics/SVG/1.1/DTD/svg11.dtd">
<!-- Generated by graphviz version 14.1.1 (20251213.1925)
 -->
<!-- Title: bme688_basic_init Pages: 1 -->
<svg width="442pt" height="960pt"
 viewBox="0.00 0.00 442.00 960.00" xmlns="http://www.w3.org/2000/svg" xmlns:xlink="http://www.w3.org/1999/xlink">
<g id="graph0" class="graph" transform="scale(1 1) rotate(0) translate(4 956)">
<title>bme688_basic_init</title>
<!-- Node1 -->
<g id="Node000001" class="node">
<title>Node1</title>
<g id="a_Node000001"><a xlink:title="basic example init">
<polygon fill="#999999" stroke="#666666" points="97,-486 0,-486 0,-466 97,-466 97,-486"/>
<text xml:space="preserve" text-anchor="middle" x="48.5" y="-472.5" font-family="Helvetica,sans-Serif" font-size="10.00">bme688_basic_init</text>
</a>
</g>
</g>
<!-- Node2 -->
<g id="Node000002" class="node">
<title>Node2</title>
<g id="a_Node000002"><a xlink:href="group__bme688__base__driver.html#gaa1ed2e75dcc1ee8174c43557c7f87694" target="_top" xlink:title="close the chip">
<polygon fill="white" stroke="#666666" points="242.75,-952 163.75,-952 163.75,-932 242.75,-932 242.75,-952"/>
<text xml:space="preserve" text-anchor="middle" x="203.25" y="-938.5" font-family="Helvetica,sans-Serif" font-size="10.00">bme688_deinit</text>
</a>
</g>
</g>
<!-- Node1&#45;&gt;Node2 -->
<g id="edge1_Node000001_Node000002" class="edge">
<title>Node1&#45;&gt;Node2</title>
<g id="a_edge1_Node000001_Node000002"><a xlink:title=" ">
<path fill="none" stroke="#63b8ff" d="M49.99,-486.43C53.03,-547.28 71.39,-856.05 133,-923 138.27,-928.73 145.1,-932.8 152.4,-935.67"/>
<polygon fill="#63b8ff" stroke="#63b8ff" points="151.29,-938.99 161.88,-938.63 153.38,-932.31 151.29,-938.99"/>
</a>
</g>
</g>
<!-- Node3 -->
<g id="Node000003" class="node">
<title>Node3</title>
<g id="a_Node000003"><a xlink:href="group__bme688__base__driver.html#ga753c8c9052516654cc156183322ec7a2" target="_top" xlink:title="initialize the chip">
<polygon fill="white" stroke="#666666" points="237.5,-914 169,-914 169,-894 237.5,-894 237.5,-914"/>
<text xml:space="preserve" text-anchor="middle" x="203.25" y="-900.5" font-family="Helvetica,sans-Serif" font-size="10.00">bme688_init</text>
</a>
</g>
</g>
<!-- Node1&#45;&gt;Node3 -->
<g id="edge2_Node000001_Node000003" class="edge">
<title>Node1&#45;&gt;Node3</title>
<g id="a_edge2_Node000001_Node000003"><a xlink:title=" ">
<path fill="none" stroke="#63b8ff" d="M50.29,-486.48C54.77,-543.73 78.9,-818.37 133,-880 139.52,-887.42 148.45,-892.55 157.73,-896.09"/>
<polygon fill="#63b8ff" stroke="#63b8ff" points="156.63,-899.42 167.22,-899.11 158.75,-892.74 156.63,-899.42"/>
</a>
</g>
</g>
<!-- Node4 -->
<g id="Node000004" class="node">
<title>Node4</title>
<g id="a_Node000004"><a xlink:href="group__bme688__interface__driver.html#gabbd5e3c2cfb83dee9bc85f8af5a2e9b3" target="_top" xlink:title="interface print format data">
<polygon fill="white" stroke="#666666" points="434.25,-753 309.5,-753 309.5,-721 434.25,-721 434.25,-753"/>
<text xml:space="preserve" text-anchor="start" x="317.5" y="-739.5" font-family="Helvetica,sans-Serif" font-size="10.00">bme688_interface_debug</text>
<text xml:space="preserve" text-anchor="middle" x="371.88" y="-727.5" font-family="Helvetica,sans-Serif" font-size="10.00">_print</text>
</a>
</g>
</g>
<!-- Node1&#45;&gt;Node4 -->
<g id="edge3_Node000001_Node000004" class="edge">
<title>Node1&#45;&gt;Node4</title>
<g id="a_edge3_Node000001_Node000004"><a xlink:title=" ">
<path fill="none" stroke="#63b8ff" d="M50.14,-486.29C53.82,-541.3 74.1,-799.88 133,-847 181.76,-886.01 216.56,-872.64 273.5,-847 311.48,-829.9 340.63,-789.85 356.76,-763.09"/>
<polygon fill="#63b8ff" stroke="#63b8ff" points="359.74,-764.93 361.73,-754.53 353.68,-761.42 359.74,-764.93"/>
</a>
</g>
</g>
<!-- Node5 -->
<g id="Node000005" class="node">
<title>Node5</title>
<g id="a_Node000005"><a xlink:href="group__bme688__interface__driver.html#ga72691d5cf0ac12f7b9a5dc7ca84ee980" target="_top" xlink:title="interface delay ms">
<polygon fill="white" stroke="#666666" points="273.5,-838 133,-838 133,-818 273.5,-818 273.5,-838"/>
<text xml:space="preserve" text-anchor="middle" x="203.25" y="-824.5" font-family="Helvetica,sans-Serif" font-size="10.00">bme688_interface_delay_ms</text>
</a>
</g>
</g>
<!-- Node1&#45;&gt;Node5 -->
<g id="edge4_Node000001_Node000005" class="edge">
<title>Node1&#45;&gt;Node5</title>
<g id="a_edge4_Node000001_Node000005"><a xlink:title=" ">
<path fill="none" stroke="#63b8ff" d="M50.69,-486.32C56.76,-537.2 85.8,-760.75 133,-809 133.74,-809.76 134.51,-810.49 135.31,-811.19"/>
<polygon fill="#63b8ff" stroke="#63b8ff" points="133.21,-813.99 143.42,-816.82 137.2,-808.24 133.21,-813.99"/>
</a>
</g>
</g>
<!-- Node6 -->
<g id="Node000006" class="node">
<title>Node6</title>
<g id="a_Node000006"><a xlink:href="group__bme688__interface__driver.html#gaebb3c736d1794ece6df6e1d2cb5e8138" target="_top" xlink:title="interface iic bus deinit">
<polygon fill="white" stroke="#666666" points="257.38,-800 149.12,-800 149.12,-768 257.38,-768 257.38,-800"/>
<text xml:space="preserve" text-anchor="start" x="157.12" y="-786.5" font-family="Helvetica,sans-Serif" font-size="10.00">bme688_interface_iic</text>
<text xml:space="preserve" text-anchor="middle" x="203.25" y="-774.5" font-family="Helvetica,sans-Serif" font-size="10.00">_deinit</text>
</a>
</g>
</g>
<!-- Node1&#45;&gt;Node6 -->
<g id="edge5_Node000001_Node000006" class="edge">
<title>Node1&#45;&gt;Node6</title>
<g id="a_edge5_Node000001_Node000006"><a xlink:title=" ">
<path fill="none" stroke="#63b8ff" d="M49.4,-486.35C49.6,-526.93 55.72,-676.97 133,-759 134.96,-761.08 137.1,-762.98 139.38,-764.73"/>
<polygon fill="#63b8ff" stroke="#63b8ff" points="137.16,-767.46 147.47,-769.89 140.93,-761.56 137.16,-767.46"/>
</a>
</g>
</g>
<!-- Node7 -->
<g id="Node000007" class="node">
<title>Node7</title>
<g id="a_Node000007"><a xlink:href="group__bme688__interface__driver.html#gaf36f3e2219fb2712a34640d20a23bbce" target="_top" xlink:title="interface iic bus init">
<polygon fill="white" stroke="#666666" points="266.38,-750 140.12,-750 140.12,-730 266.38,-730 266.38,-750"/>
<text xml:space="preserve" text-anchor="middle" x="203.25" y="-736.5" font-family="Helvetica,sans-Serif" font-size="10.00">bme688_interface_iic_init</text>
</a>
</g>
</g>
<!-- Node1&#45;&gt;Node7 -->
<g id="edge6_Node000001_Node000007" class="edge">
<title>Node1&#45;&gt;Node7</title>
<g id="a_edge6_Node000001_Node000007"><a xlink:title=" ">
<path fill="none" stroke="#63b8ff" d="M49.77,-486.41C51.32,-524 61.82,-654.02 133,-721 133.91,-721.85 134.85,-722.67 135.82,-723.45"/>
<polygon fill="#63b8ff" stroke="#63b8ff" points="133.72,-726.26 144.03,-728.73 137.51,-720.37 133.72,-726.26"/>
</a>
</g>
</g>
<!-- Node8 -->
<g id="Node000008" class="node">
<title>Node8</title>
<g id="a_Node000008"><a xlink:href="group__bme688__interface__driver.html#ga6d0ef4ee3dbeed86926a3639e43715ef" target="_top" xlink:title="interface iic bus read">
<polygon fill="white" stroke="#666666" points="269.38,-712 137.12,-712 137.12,-692 269.38,-692 269.38,-712"/>
<text xml:space="preserve" text-anchor="middle" x="203.25" y="-698.5" font-family="Helvetica,sans-Serif" font-size="10.00">bme688_interface_iic_read</text>
</a>
</g>
</g>
<!-- Node1&#45;&gt;Node8 -->
<g id="edge7_Node000001_Node000008" class="edge">
<title>Node1&#45;&gt;Node8</title>
<g id="a_edge7_Node000001_Node000008"><a xlink:title=" ">
<path fill="none" stroke="#63b8ff" d="M50.5,-486.43C54.33,-520.25 71.07,-627.85 133,-683 134.1,-683.98 135.25,-684.91 136.43,-685.79"/>
<polygon fill="#63b8ff" stroke="#63b8ff" points="134.51,-688.72 144.88,-690.89 138.12,-682.73 134.51,-688.72"/>
</a>
</g>
</g>
<!-- Node9 -->
<g id="Node000009" class="node">
<title>Node9</title>
<g id="a_Node000009"><a xlink:href="group__bme688__interface__driver.html#ga2a4b1f97b248b9d3a2105d49f911aab2" target="_top" xlink:title="interface iic bus write">
<polygon fill="white" stroke="#666666" points="257.38,-674 149.12,-674 149.12,-642 257.38,-642 257.38,-674"/>
<text xml:space="preserve" text-anchor="start" x="157.12" y="-660.5" font-family="Helvetica,sans-Serif" font-size="10.00">bme688_interface_iic</text>
<text xml:space="preserve" text-anchor="middle" x="203.25" y="-648.5" font-family="Helvetica,sans-Serif" font-size="10.00">_write</text>
</a>
</g>
</g>
<!-- Node1&#45;&gt;Node9 -->
<g id="edge8_Node000001_Node000009" class="edge">
<title>Node1&#45;&gt;Node9</title>
<g id="a_edge8_Node000001_Node000009"><a xlink:title=" ">
<path fill="none" stroke="#63b8ff" d="M52.2,-486.45C59.92,-514.33 84.71,-591.14 133,-633 134.92,-634.67 136.96,-636.23 139.1,-637.68"/>
<polygon fill="#63b8ff" stroke="#63b8ff" points="137.22,-640.64 147.62,-642.68 140.76,-634.6 137.22,-640.64"/>
</a>
</g>
</g>
<!-- Node10 -->
<g id="Node000010" class="node">
<title>Node10</title>
<g id="a_Node000010"><a xlink:href="group__bme688__interface__driver.html#ga5fb51315cf63b45ad8dd40c5fb5190d1" target="_top" xlink:title="interface receive callback">
<polygon fill="white" stroke="#666666" points="268.25,-624 138.25,-624 138.25,-592 268.25,-592 268.25,-624"/>
<text xml:space="preserve" text-anchor="start" x="146.25" y="-610.5" font-family="Helvetica,sans-Serif" font-size="10.00">bme688_interface_receive</text>
<text xml:space="preserve" text-anchor="middle" x="203.25" y="-598.5" font-family="Helvetica,sans-Serif" font-size="10.00">_callback</text>
</a>
</g>
</g>
<!-- Node1&#45;&gt;Node10 -->
<g id="edge9_Node000001_Node000010" class="edge">
<title>Node1&#45;&gt;Node10</title>
<g id="a_edge9_Node000001_Node000010"><a xlink:title=" ">
<path fill="none" stroke="#63b8ff" d="M54.95,-486.41C66.53,-507.57 95.61,-555.89 133,-583 134.53,-584.11 136.11,-585.17 137.74,-586.19"/>
<polygon fill="#63b8ff" stroke="#63b8ff" points="135.68,-589.05 146.12,-590.84 139.08,-582.93 135.68,-589.05"/>
</a>
</g>
</g>
<!-- Node11 -->
<g id="Node000011" class="node">
<title>Node11</title>
<g id="a_Node000011"><a xlink:href="group__bme688__interface__driver.html#gae307cd8eae9843428f27e6e565b58a43" target="_top" xlink:title="interface spi bus deinit">
<polygon fill="white" stroke="#666666" points="258.88,-574 147.62,-574 147.62,-542 258.88,-542 258.88,-574"/>
<text xml:space="preserve" text-anchor="start" x="155.62" y="-560.5" font-family="Helvetica,sans-Serif" font-size="10.00">bme688_interface_spi</text>
<text xml:space="preserve" text-anchor="middle" x="203.25" y="-548.5" font-family="Helvetica,sans-Serif" font-size="10.00">_deinit</text>
</a>
</g>
</g>
<!-- Node1&#45;&gt;Node11 -->
<g id="edge11_Node000001_Node000011" class="edge">
<title>Node1&#45;&gt;Node11</title>
<g id="a_edge11_Node000001_Node000011"><a xlink:title=" ">
<path fill="none" stroke="#63b8ff" d="M62.44,-486.38C78.33,-498.74 106.43,-519.41 133,-533 135.83,-534.45 138.76,-535.85 141.75,-537.2"/>
<polygon fill="#63b8ff" stroke="#63b8ff" points="140.09,-540.3 150.66,-541 142.83,-533.86 140.09,-540.3"/>
</a>
</g>
</g>
<!-- Node12 -->
<g id="Node000012" class="node">
<title>Node12</title>
<g id="a_Node000012"><a xlink:href="group__bme688__interface__driver.html#gae4186ca9706f29ba17dab0aaa22a7f69" target="_top" xlink:title="interface spi bus init">
<polygon fill="white" stroke="#666666" points="267.88,-524 138.62,-524 138.62,-504 267.88,-504 267.88,-524"/>
<text xml:space="preserve" text-anchor="middle" x="203.25" y="-510.5" font-family="Helvetica,sans-Serif" font-size="10.00">bme688_interface_spi_init</text>
</a>
</g>
</g>
<!-- Node1&#45;&gt;Node12 -->
<g id="edge12_Node000001_Node000012" class="edge">
<title>Node1&#45;&gt;Node12</title>
<g id="a_edge12_Node000001_Node000012"><a xlink:title=" ">
<path fill="none" stroke="#63b8ff" d="M91.64,-486.48C109.42,-490.91 130.33,-496.11 149.14,-500.79"/>
<polygon fill="#63b8ff" stroke="#63b8ff" points="148.23,-504.17 158.77,-503.18 149.92,-497.37 148.23,-504.17"/>
</a>
</g>
</g>
<!-- Node13 -->
<g id="Node000013" class="node">
<title>Node13</title>
<g id="a_Node000013"><a xlink:href="group__bme688__interface__driver.html#ga86bbeb52c998133476a7de9921fa9495" target="_top" xlink:title="interface spi bus read">
<polygon fill="white" stroke="#666666" points="270.88,-486 135.62,-486 135.62,-466 270.88,-466 270.88,-486"/>
<text xml:space="preserve" text-anchor="middle" x="203.25" y="-472.5" font-family="Helvetica,sans-Serif" font-size="10.00">bme688_interface_spi_read</text>
</a>
</g>
</g>
<!-- Node1&#45;&gt;Node13 -->
<g id="edge13_Node000001_Node000013" class="edge">
<title>Node1&#45;&gt;Node13</title>
<g id="a_edge13_Node000001_Node000013"><a xlink:title=" ">
<path fill="none" stroke="#63b8ff" d="M97.41,-476C105.84,-476 114.81,-476 123.81,-476"/>
<polygon fill="#63b8ff" stroke="#63b8ff" points="123.69,-479.5 133.69,-476 123.69,-472.5 123.69,-479.5"/>
</a>
</g>
</g>
<!-- Node14 -->
<g id="Node000014" class="node">
<title>Node14</title>
<g id="a_Node000014"><a xlink:href="group__bme688__interface__driver.html#ga08805bd054323979e5c949889dabccc2" target="_top" xlink:title="interface spi bus write">
<polygon fill="white" stroke="#666666" points="258.88,-448 147.62,-448 147.62,-416 258.88,-416 258.88,-448"/>
<text xml:space="preserve" text-anchor="start" x="155.62" y="-434.5" font-family="Helvetica,sans-Serif" font-size="10.00">bme688_interface_spi</text>
<text xml:space="preserve" text-anchor="middle" x="203.25" y="-422.5" font-family="Helvetica,sans-Serif" font-size="10.00">_write</text>
</a>
</g>
</g>
<!-- Node1&#45;&gt;Node14 -->
<g id="edge14_Node000001_Node000014" class="edge">
<title>Node1&#45;&gt;Node14</title>
<g id="a_edge14_Node000001_Node000014"><a xlink:title=" ">
<path fill="none" stroke="#63b8ff" d="M85.7,-465.57C100.9,-461.2 119.06,-455.96 136.47,-450.95"/>
<polygon fill="#63b8ff" stroke="#63b8ff" points="137.09,-454.41 145.73,-448.28 135.15,-447.69 137.09,-454.41"/>
</a>
</g>
</g>
<!-- Node15 -->
<g id="Node000015" class="node">
<title>Node15</title>
<g id="a_Node000015"><a xlink:href="group__bme688__base__driver.html#ga1b1a625b7db3c805ffe3a29bac6e042d" target="_top" xlink:title="set the iic address pin">
<polygon fill="white" stroke="#666666" points="258.88,-398 147.62,-398 147.62,-378 258.88,-378 258.88,-398"/>
<text xml:space="preserve" text-anchor="middle" x="203.25" y="-384.5" font-family="Helvetica,sans-Serif" font-size="10.00">bme688_set_addr_pin</text>
</a>
</g>
</g>
<!-- Node1&#45;&gt;Node15 -->
<g id="edge15_Node000001_Node000015" class="edge">
<title>Node1&#45;&gt;Node15</title>
<g id="a_edge15_Node000001_Node000015"><a xlink:title=" ">
<path fill="none" stroke="#63b8ff" d="M58.78,-465.99C73.24,-451 102.63,-422.78 133,-407 136.26,-405.3 139.69,-403.75 143.21,-402.32"/>
<polygon fill="#63b8ff" stroke="#63b8ff" points="144.31,-405.64 152.51,-398.93 141.92,-399.06 144.31,-405.64"/>
</a>
</g>
</g>
<!-- Node16 -->
<g id="Node000016" class="node">
<title>Node16</title>
<g id="a_Node000016"><a xlink:href="group__bme688__base__driver.html#ga000636080d644b9d2dbf264db5e78e76" target="_top" xlink:title="set filter">
<polygon fill="white" stroke="#666666" points="249.88,-360 156.62,-360 156.62,-340 249.88,-340 249.88,-360"/>
<text xml:space="preserve" text-anchor="middle" x="203.25" y="-346.5" font-family="Helvetica,sans-Serif" font-size="10.00">bme688_set_filter</text>
</a>
</g>
</g>
<!-- Node1&#45;&gt;Node16 -->
<g id="edge16_Node000001_Node000016" class="edge">
<title>Node1&#45;&gt;Node16</title>
<g id="a_edge16_Node000001_Node000016"><a xlink:title=" ">
<path fill="none" stroke="#63b8ff" d="M54.61,-465.67C65.75,-444.23 94.38,-394.75 133,-369 136.97,-366.36 141.3,-364.08 145.79,-362.11"/>
<polygon fill="#63b8ff" stroke="#63b8ff" points="146.94,-365.42 155.06,-358.62 144.47,-358.87 146.94,-365.42"/>
</a>
</g>
</g>
<!-- Node17 -->
<g id="Node000017" class="node">
<title>Node17</title>
<g id="a_Node000017"><a xlink:href="group__bme688__base__driver.html#gad207445415770ef82a8c3602e32f115a" target="_top" xlink:title="enable or disable heater off">
<polygon fill="white" stroke="#666666" points="261.88,-322 144.62,-322 144.62,-302 261.88,-302 261.88,-322"/>
<text xml:space="preserve" text-anchor="middle" x="203.25" y="-308.5" font-family="Helvetica,sans-Serif" font-size="10.00">bme688_set_heater_off</text>
</a>
</g>
</g>
<!-- Node1&#45;&gt;Node17 -->
<g id="edge17_Node000001_Node000017" class="edge">
<title>Node1&#45;&gt;Node17</title>
<g id="a_edge17_Node000001_Node000017"><a xlink:title=" ">
<path fill="none" stroke="#63b8ff" d="M52.39,-465.75C60.44,-439.19 85.65,-367.6 133,-331 134.53,-329.82 136.12,-328.71 137.77,-327.68"/>
<polygon fill="#63b8ff" stroke="#63b8ff" points="139.15,-330.91 146.37,-323.16 135.89,-324.71 139.15,-330.91"/>
</a>
</g>
</g>
<!-- Node18 -->
<g id="Node000018" class="node">
<title>Node18</title>
<g id="a_Node000018"><a xlink:href="group__bme688__base__driver.html#gaf099d12d1ab712ba537eeb1ecda59fd0" target="_top" xlink:title="set humidity oversampling">
<polygon fill="white" stroke="#666666" points="258.88,-284 147.62,-284 147.62,-252 258.88,-252 258.88,-284"/>
<text xml:space="preserve" text-anchor="start" x="155.62" y="-270.5" font-family="Helvetica,sans-Serif" font-size="10.00">bme688_set_humidity</text>
<text xml:space="preserve" text-anchor="middle" x="203.25" y="-258.5" font-family="Helvetica,sans-Serif" font-size="10.00">_oversampling</text>
</a>
</g>
</g>
<!-- Node1&#45;&gt;Node18 -->
<g id="edge18_Node000001_Node000018" class="edge">
<title>Node1&#45;&gt;Node18</title>
<g id="a_edge18_Node000001_Node000018"><a xlink:title=" ">
<path fill="none" stroke="#63b8ff" d="M51.31,-465.65C57.23,-434.87 78.81,-342.93 133,-293 134.45,-291.66 135.99,-290.39 137.58,-289.19"/>
<polygon fill="#63b8ff" stroke="#63b8ff" points="139.45,-292.14 146.01,-283.82 135.69,-286.24 139.45,-292.14"/>
</a>
</g>
</g>
<!-- Node19 -->
<g id="Node000019" class="node">
<title>Node19</title>
<g id="a_Node000019"><a xlink:href="group__bme688__base__driver.html#ga01214bebfbe2d48248817da49080e054" target="_top" xlink:title="set the interface">
<polygon fill="white" stroke="#666666" points="259.25,-234 147.25,-234 147.25,-214 259.25,-214 259.25,-234"/>
<text xml:space="preserve" text-anchor="middle" x="203.25" y="-220.5" font-family="Helvetica,sans-Serif" font-size="10.00">bme688_set_interface</text>
</a>
</g>
</g>
<!-- Node1&#45;&gt;Node19 -->
<g id="edge19_Node000001_Node000019" class="edge">
<title>Node1&#45;&gt;Node19</title>
<g id="a_edge19_Node000001_Node000019"><a xlink:title=" ">
<path fill="none" stroke="#63b8ff" d="M49.96,-465.84C52.16,-429.72 64.6,-306.37 133,-243 134.41,-241.69 135.91,-240.47 137.47,-239.33"/>
<polygon fill="#63b8ff" stroke="#63b8ff" points="138.92,-242.54 145.75,-234.44 135.36,-236.51 138.92,-242.54"/>
</a>
</g>
</g>
<!-- Node20 -->
<g id="Node000020" class="node">
<title>Node20</title>
<g id="a_Node000020"><a xlink:href="group__bme688__base__driver.html#ga3a6d95d200d69c598498cf01de89b341" target="_top" xlink:title="set mode">
<polygon fill="white" stroke="#666666" points="252.5,-196 154,-196 154,-176 252.5,-176 252.5,-196"/>
<text xml:space="preserve" text-anchor="middle" x="203.25" y="-182.5" font-family="Helvetica,sans-Serif" font-size="10.00">bme688_set_mode</text>
</a>
</g>
</g>
<!-- Node1&#45;&gt;Node20 -->
<g id="edge20_Node000001_Node000020" class="edge">
<title>Node1&#45;&gt;Node20</title>
<g id="a_edge20_Node000001_Node000020"><a xlink:title=" ">
<path fill="none" stroke="#63b8ff" d="M49.38,-465.63C49.49,-425.68 55.41,-280.21 133,-205 136.09,-202 139.61,-199.47 143.38,-197.33"/>
<polygon fill="#63b8ff" stroke="#63b8ff" points="144.84,-200.51 152.47,-193.16 141.92,-194.15 144.84,-200.51"/>
</a>
</g>
</g>
<!-- Node21 -->
<g id="Node000021" class="node">
<title>Node21</title>
<g id="a_Node000021"><a xlink:href="group__bme688__base__driver.html#gaf1cb055b8479bb18479d5e2c3a3df04a" target="_top" xlink:title="set pressure oversampling">
<polygon fill="white" stroke="#666666" points="259.25,-158 147.25,-158 147.25,-126 259.25,-126 259.25,-158"/>
<text xml:space="preserve" text-anchor="start" x="155.25" y="-144.5" font-family="Helvetica,sans-Serif" font-size="10.00">bme688_set_pressure</text>
<text xml:space="preserve" text-anchor="middle" x="203.25" y="-132.5" font-family="Helvetica,sans-Serif" font-size="10.00">_oversampling</text>
</a>
</g>
</g>
<!-- Node1&#45;&gt;Node21 -->
<g id="edge21_Node000001_Node000021" class="edge">
<title>Node1&#45;&gt;Node21</title>
<g id="a_edge21_Node000001_Node000021"><a xlink:title=" ">
<path fill="none" stroke="#63b8ff" d="M49.1,-465.61C48.02,-422.73 49.63,-257.55 133,-167 134.49,-165.38 136.1,-163.86 137.8,-162.44"/>
<polygon fill="#63b8ff" stroke="#63b8ff" points="139.45,-165.55 145.7,-157 135.48,-159.79 139.45,-165.55"/>
</a>
</g>
</g>
<!-- Node22 -->
<g id="Node000022" class="node">
<title>Node22</title>
<g id="a_Node000022"><a xlink:href="group__bme688__base__driver.html#ga505dc892644870e991baaa3dc733f1bf" target="_top" xlink:title="enable or disable run gas">
<polygon fill="white" stroke="#666666" points="257.75,-108 148.75,-108 148.75,-88 257.75,-88 257.75,-108"/>
<text xml:space="preserve" text-anchor="middle" x="203.25" y="-94.5" font-family="Helvetica,sans-Serif" font-size="10.00">bme688_set_run_gas</text>
</a>
</g>
</g>
<!-- Node1&#45;&gt;Node22 -->
<g id="edge22_Node000001_Node000022" class="edge">
<title>Node1&#45;&gt;Node22</title>
<g id="a_edge22_Node000001_Node000022"><a xlink:title=" ">
<path fill="none" stroke="#63b8ff" d="M50.5,-465.59C55.82,-412.2 82.55,-169.47 133,-117 134.76,-115.17 136.67,-113.52 138.7,-112.02"/>
<polygon fill="#63b8ff" stroke="#63b8ff" points="140.14,-115.23 146.98,-107.15 136.59,-109.2 140.14,-115.23"/>
</a>
</g>
</g>
<!-- Node23 -->
<g id="Node000023" class="node">
<title>Node23</title>
<g id="a_Node000023"><a xlink:href="group__bme688__base__driver.html#ga64e142b37dbf5f9a8c2be44604d81c16" target="_top" xlink:title="set spi wire">
<polygon fill="white" stroke="#666666" points="258.5,-70 148,-70 148,-50 258.5,-50 258.5,-70"/>
<text xml:space="preserve" text-anchor="middle" x="203.25" y="-56.5" font-family="Helvetica,sans-Serif" font-size="10.00">bme688_set_spi_wire</text>
</a>
</g>
</g>
<!-- Node1&#45;&gt;Node23 -->
<g id="edge23_Node000001_Node000023" class="edge">
<title>Node1&#45;&gt;Node23</title>
<g id="a_edge23_Node000001_Node000023"><a xlink:title=" ">
<path fill="none" stroke="#63b8ff" d="M50.25,-465.64C54.53,-409.06 77.73,-137.72 133,-79 134.54,-77.37 136.2,-75.87 137.97,-74.49"/>
<polygon fill="#63b8ff" stroke="#63b8ff" points="139.54,-77.63 146.22,-69.41 135.87,-71.67 139.54,-77.63"/>
</a>
</g>
</g>
<!-- Node24 -->
<g id="Node000024" class="node">
<title>Node24</title>
<g id="a_Node000024"><a xlink:href="group__bme688__base__driver.html#ga3583f4268d03e5c2539e36727e91605a" target="_top" xlink:title="set temperature oversampling">
<polygon fill="white" stroke="#666666" points="266.38,-32 140.12,-32 140.12,0 266.38,0 266.38,-32"/>
<text xml:space="preserve" text-anchor="start" x="148.12" y="-18.5" font-family="Helvetica,sans-Serif" font-size="10.00">bme688_set_temperature</text>
<text xml:space="preserve" text-anchor="middle" x="203.25" y="-6.5" font-family="Helvetica,sans-Serif" font-size="10.00">_oversampling</text>
</a>
</g>
</g>
<!-- Node1&#45;&gt;Node24 -->
<g id="edge24_Node000001_Node000024" class="edge">
<title>Node1&#45;&gt;Node24</title>
<g id="a_edge24_Node000001_Node000024"><a xlink:title=" ">
<path fill="none" stroke="#63b8ff" d="M50.13,-465.53C53.93,-405.79 75.56,-108.24 133,-41 133.35,-40.59 133.71,-40.18 134.08,-39.78"/>
<polygon fill="#63b8ff" stroke="#63b8ff" points="136.28,-42.51 141.56,-33.33 131.7,-37.21 136.28,-42.51"/>
</a>
</g>
</g>
<!-- Node10&#45;&gt;Node4 -->
<g id="edge10_Node000010_Node000004" class="edge">
<title>Node10&#45;&gt;Node4</title>
<g id="a_edge10_Node000010_Node000004"><a xlink:title=" ">
<path fill="none" stroke="#63b8ff" d="M257.68,-624.34C263.21,-626.89 268.59,-629.77 273.5,-633 305.82,-654.28 335,-688.39 352.81,-711.7"/>
<polygon fill="#63b8ff" stroke="#63b8ff" points="349.81,-713.53 358.6,-719.45 355.42,-709.34 349.81,-713.53"/>
</a>
</g>
</g>
</g>
</svg>
