<?xml version="1.0" encoding="UTF-8" standalone="no"?>
<!DOCTYPE svg PUBLIC "-//W3C//DTD SVG 1.1//EN"
 "http://www.w3.org/Graphics/SVG/1.1/DTD/svg11.dtd">
<!-- Generated by graphviz version 14.1.1 (20251213.1925)
 -->
<!-- Title: bme688_basic_deinit Pages: 1 -->
<svg width="269pt" height="66pt"
 viewBox="0.00 0.00 269.00 66.00" xmlns="http://www.w3.org/2000/svg" xmlns:xlink="http://www.w3.org/1999/xlink">
<g id="graph0" class="graph" transform="scale(1 1) rotate(0) translate(4 62)">
<title>bme688_basic_deinit</title>
<!-- Node1 -->
<g id="Node000001" class="node">
<title>Node1</title>
<g id="a_Node000001"><a xlink:title="basic example deinit">
<polygon fill="#999999" stroke="#666666" points="107.5,-39 0,-39 0,-19 107.5,-19 107.5,-39"/>
<text xml:space="preserve" text-anchor="middle" x="53.75" y="-25.5" font-family="Helvetica,sans-Serif" font-size="10.00">bme688_basic_deinit</text>
</a>
</g>
</g>
<!-- Node2 -->
<g id="Node000002" class="node">
<title>Node2</title>
<g id="a_Node000002"><a xlink:href="group__bme688__base__driver.html#gaa1ed2e75dcc1ee8174c43557c7f87694" target="_top" xlink:title="close the chip">
<polygon fill="white" stroke="#666666" points="241.62,-58 162.62,-58 162.62,-38 241.62,-38 241.62,-58"/>
<text xml:space="preserve" text-anchor="middle" x="202.12" y="-44.5" font-family="Helvetica,sans-Serif" font-size="10.00">bme688_deinit</text>
</a>
</g>
</g>
<!-- Node1&#45;&gt;Node2 -->
<g id="edge1_Node000001_Node000002" class="edge">
<title>Node1&#45;&gt;Node2</title>
<g id="a_edge1_Node000001_Node000002"><a xlink:title=" ">
<path fill="none" stroke="#63b8ff" d="M107.59,-35.86C121.67,-37.69 136.83,-39.65 150.77,-41.46"/>
<polygon fill="#63b8ff" stroke="#63b8ff" points="150.27,-44.93 160.64,-42.74 151.17,-37.99 150.27,-44.93"/>
</a>
</g>
</g>
<!-- Node3 -->
<g id="Node000003" class="node">
<title>Node3</title>
<g id="a_Node000003"><a xlink:href="group__bme688__base__driver.html#gad207445415770ef82a8c3602e32f115a" target="_top" xlink:title="enable or disable heater off">
<polygon fill="white" stroke="#666666" points="260.75,-20 143.5,-20 143.5,0 260.75,0 260.75,-20"/>
<text xml:space="preserve" text-anchor="middle" x="202.12" y="-6.5" font-family="Helvetica,sans-Serif" font-size="10.00">bme688_set_heater_off</text>
</a>
</g>
</g>
<!-- Node1&#45;&gt;Node3 -->
<g id="edge2_Node000001_Node000003" class="edge">
<title>Node1&#45;&gt;Node3</title>
<g id="a_edge2_Node000001_Node000003"><a xlink:title=" ">
<path fill="none" stroke="#63b8ff" d="M107.59,-22.14C115.59,-21.1 123.94,-20.02 132.21,-18.95"/>
<polygon fill="#63b8ff" stroke="#63b8ff" points="132.44,-22.45 141.9,-17.69 131.54,-15.5 132.44,-22.45"/>
</a>
</g>
</g>
</g>
</svg>
