<?xml version="1.0" encoding="UTF-8" standalone="no"?>
<!DOCTYPE svg PUBLIC "-//W3C//DTD SVG 1.1//EN"
 "http://www.w3.org/Graphics/SVG/1.1/DTD/svg11.dtd">
<!-- Generated by graphviz version 14.1.1 (20251213.1925)
 -->
<!-- Title: bme688_gas_init Pages: 1 -->
<svg width="435pt" height="960pt"
 viewBox="0.00 0.00 435.00 960.00" xmlns="http://www.w3.org/2000/svg" xmlns:xlink="http://www.w3.org/1999/xlink">
<g id="graph0" class="graph" transform="scale(1 1) rotate(0) translate(4 956)">
<title>bme688_gas_init</title>
<!-- Node1 -->
<g id="Node000001" class="node">
<title>Node1</title>
<g id="a_Node000001"><a xlink:title="gas example init">
<polygon fill="#999999" stroke="#666666" points="89.5,-486 0,-486 0,-466 89.5,-466 89.5,-486"/>
<text xml:space="preserve" text-anchor="middle" x="44.75" y="-472.5" font-family="Helvetica,sans-Serif" font-size="10.00">bme688_gas_init</text>
</a>
</g>
</g>
<!-- Node2 -->
<g id="Node000002" class="node">
<title>Node2</title>
<g id="a_Node000002"><a xlink:href="group__bme688__base__driver.html#gaa1ed2e75dcc1ee8174c43557c7f87694" target="_top" xlink:title="close the chip">
<polygon fill="white" stroke="#666666" points="235.25,-952 156.25,-952 156.25,-932 235.25,-932 235.25,-952"/>
<text xml:space="preserve" text-anchor="middle" x="195.75" y="-938.5" font-family="Helvetica,sans-Serif" font-size="10.00">bme688_deinit</text>
</a>
</g>
</g>
<!-- Node1&#45;&gt;Node2 -->
<g id="edge1_Node000001_Node000002" class="edge">
<title>Node1&#45;&gt;Node2</title>
<g id="a_edge1_Node000001_Node000002"><a xlink:title=" ">
<path fill="none" stroke="#63b8ff" d="M46.14,-486.42C48.65,-547.25 64.25,-855.9 125.5,-923 130.75,-928.75 137.56,-932.83 144.86,-935.71"/>
<polygon fill="#63b8ff" stroke="#63b8ff" points="143.75,-939.02 154.34,-938.66 145.84,-932.34 143.75,-939.02"/>
</a>
</g>
</g>
<!-- Node3 -->
<g id="Node000003" class="node">
<title>Node3</title>
<g id="a_Node000003"><a xlink:href="group__bme688__base__driver.html#ga753c8c9052516654cc156183322ec7a2" target="_top" xlink:title="initialize the chip">
<polygon fill="white" stroke="#666666" points="230,-914 161.5,-914 161.5,-894 230,-894 230,-914"/>
<text xml:space="preserve" text-anchor="middle" x="195.75" y="-900.5" font-family="Helvetica,sans-Serif" font-size="10.00">bme688_init</text>
</a>
</g>
</g>
<!-- Node1&#45;&gt;Node3 -->
<g id="edge2_Node000001_Node000003" class="edge">
<title>Node1&#45;&gt;Node3</title>
<g id="a_edge2_Node000001_Node000003"><a xlink:title=" ">
<path fill="none" stroke="#63b8ff" d="M46.43,-486.47C50.35,-543.7 71.77,-818.24 125.5,-880 131.98,-887.45 140.9,-892.59 150.18,-896.13"/>
<polygon fill="#63b8ff" stroke="#63b8ff" points="149.09,-899.46 159.68,-899.15 151.2,-892.79 149.09,-899.46"/>
</a>
</g>
</g>
<!-- Node4 -->
<g id="Node000004" class="node">
<title>Node4</title>
<g id="a_Node000004"><a xlink:href="group__bme688__interface__driver.html#gabbd5e3c2cfb83dee9bc85f8af5a2e9b3" target="_top" xlink:title="interface print format data">
<polygon fill="white" stroke="#666666" points="426.75,-753 302,-753 302,-721 426.75,-721 426.75,-753"/>
<text xml:space="preserve" text-anchor="start" x="310" y="-739.5" font-family="Helvetica,sans-Serif" font-size="10.00">bme688_interface_debug</text>
<text xml:space="preserve" text-anchor="middle" x="364.38" y="-727.5" font-family="Helvetica,sans-Serif" font-size="10.00">_print</text>
</a>
</g>
</g>
<!-- Node1&#45;&gt;Node4 -->
<g id="edge3_Node000001_Node000004" class="edge">
<title>Node1&#45;&gt;Node4</title>
<g id="a_edge3_Node000001_Node000004"><a xlink:title=" ">
<path fill="none" stroke="#63b8ff" d="M46.29,-486.29C49.38,-541.26 66.95,-799.7 125.5,-847 174.07,-886.24 209.06,-872.64 266,-847 303.98,-829.9 333.13,-789.85 349.26,-763.09"/>
<polygon fill="#63b8ff" stroke="#63b8ff" points="352.24,-764.93 354.23,-754.53 346.18,-761.42 352.24,-764.93"/>
</a>
</g>
</g>
<!-- Node5 -->
<g id="Node000005" class="node">
<title>Node5</title>
<g id="a_Node000005"><a xlink:href="group__bme688__interface__driver.html#ga72691d5cf0ac12f7b9a5dc7ca84ee980" target="_top" xlink:title="interface delay ms">
<polygon fill="white" stroke="#666666" points="266,-838 125.5,-838 125.5,-818 266,-818 266,-838"/>
<text xml:space="preserve" text-anchor="middle" x="195.75" y="-824.5" font-family="Helvetica,sans-Serif" font-size="10.00">bme688_interface_delay_ms</text>
</a>
</g>
</g>
<!-- Node1&#45;&gt;Node5 -->
<g id="edge4_Node000001_Node000005" class="edge">
<title>Node1&#45;&gt;Node5</title>
<g id="a_edge4_Node000001_Node000005"><a xlink:title=" ">
<path fill="none" stroke="#63b8ff" d="M46.82,-486.32C52.28,-537.17 78.68,-760.62 125.5,-809 126.22,-809.74 126.97,-810.46 127.74,-811.15"/>
<polygon fill="#63b8ff" stroke="#63b8ff" points="125.37,-813.76 135.56,-816.66 129.4,-808.04 125.37,-813.76"/>
</a>
</g>
</g>
<!-- Node6 -->
<g id="Node000006" class="node">
<title>Node6</title>
<g id="a_Node000006"><a xlink:href="group__bme688__interface__driver.html#gaebb3c736d1794ece6df6e1d2cb5e8138" target="_top" xlink:title="interface iic bus deinit">
<polygon fill="white" stroke="#666666" points="249.88,-800 141.62,-800 141.62,-768 249.88,-768 249.88,-800"/>
<text xml:space="preserve" text-anchor="start" x="149.62" y="-786.5" font-family="Helvetica,sans-Serif" font-size="10.00">bme688_interface_iic</text>
<text xml:space="preserve" text-anchor="middle" x="195.75" y="-774.5" font-family="Helvetica,sans-Serif" font-size="10.00">_deinit</text>
</a>
</g>
</g>
<!-- Node1&#45;&gt;Node6 -->
<g id="edge5_Node000001_Node000006" class="edge">
<title>Node1&#45;&gt;Node6</title>
<g id="a_edge5_Node000001_Node000006"><a xlink:title=" ">
<path fill="none" stroke="#63b8ff" d="M45.5,-486.34C45.08,-526.88 48.99,-676.79 125.5,-759 127.44,-761.09 129.57,-763 131.84,-764.76"/>
<polygon fill="#63b8ff" stroke="#63b8ff" points="129.61,-767.48 139.92,-769.94 133.4,-761.59 129.61,-767.48"/>
</a>
</g>
</g>
<!-- Node7 -->
<g id="Node000007" class="node">
<title>Node7</title>
<g id="a_Node000007"><a xlink:href="group__bme688__interface__driver.html#gaf36f3e2219fb2712a34640d20a23bbce" target="_top" xlink:title="interface iic bus init">
<polygon fill="white" stroke="#666666" points="258.88,-750 132.62,-750 132.62,-730 258.88,-730 258.88,-750"/>
<text xml:space="preserve" text-anchor="middle" x="195.75" y="-736.5" font-family="Helvetica,sans-Serif" font-size="10.00">bme688_interface_iic_init</text>
</a>
</g>
</g>
<!-- Node1&#45;&gt;Node7 -->
<g id="edge6_Node000001_Node000007" class="edge">
<title>Node1&#45;&gt;Node7</title>
<g id="a_edge6_Node000001_Node000007"><a xlink:title=" ">
<path fill="none" stroke="#63b8ff" d="M45.84,-486.4C46.76,-523.95 55.11,-653.84 125.5,-721 126.4,-721.86 127.34,-722.68 128.31,-723.47"/>
<polygon fill="#63b8ff" stroke="#63b8ff" points="126.19,-726.26 136.48,-728.77 130,-720.39 126.19,-726.26"/>
</a>
</g>
</g>
<!-- Node8 -->
<g id="Node000008" class="node">
<title>Node8</title>
<g id="a_Node000008"><a xlink:href="group__bme688__interface__driver.html#ga6d0ef4ee3dbeed86926a3639e43715ef" target="_top" xlink:title="interface iic bus read">
<polygon fill="white" stroke="#666666" points="261.88,-712 129.62,-712 129.62,-692 261.88,-692 261.88,-712"/>
<text xml:space="preserve" text-anchor="middle" x="195.75" y="-698.5" font-family="Helvetica,sans-Serif" font-size="10.00">bme688_interface_iic_read</text>
</a>
</g>
</g>
<!-- Node1&#45;&gt;Node8 -->
<g id="edge7_Node000001_Node000008" class="edge">
<title>Node1&#45;&gt;Node8</title>
<g id="a_edge7_Node000001_Node000008"><a xlink:title=" ">
<path fill="none" stroke="#63b8ff" d="M46.55,-486.42C49.72,-520.21 64.38,-627.71 125.5,-683 126.57,-683.96 127.68,-684.88 128.83,-685.75"/>
<polygon fill="#63b8ff" stroke="#63b8ff" points="126.64,-688.52 136.99,-690.77 130.3,-682.55 126.64,-688.52"/>
</a>
</g>
</g>
<!-- Node9 -->
<g id="Node000009" class="node">
<title>Node9</title>
<g id="a_Node000009"><a xlink:href="group__bme688__interface__driver.html#ga2a4b1f97b248b9d3a2105d49f911aab2" target="_top" xlink:title="interface iic bus write">
<polygon fill="white" stroke="#666666" points="249.88,-674 141.62,-674 141.62,-642 249.88,-642 249.88,-674"/>
<text xml:space="preserve" text-anchor="start" x="149.62" y="-660.5" font-family="Helvetica,sans-Serif" font-size="10.00">bme688_interface_iic</text>
<text xml:space="preserve" text-anchor="middle" x="195.75" y="-648.5" font-family="Helvetica,sans-Serif" font-size="10.00">_write</text>
</a>
</g>
</g>
<!-- Node1&#45;&gt;Node9 -->
<g id="edge8_Node000001_Node000009" class="edge">
<title>Node1&#45;&gt;Node9</title>
<g id="a_edge8_Node000001_Node000009"><a xlink:title=" ">
<path fill="none" stroke="#63b8ff" d="M48.18,-486.45C55.2,-514.31 78.07,-591.1 125.5,-633 127.41,-634.68 129.44,-636.26 131.56,-637.73"/>
<polygon fill="#63b8ff" stroke="#63b8ff" points="129.66,-640.67 140.04,-642.76 133.23,-634.65 129.66,-640.67"/>
</a>
</g>
</g>
<!-- Node10 -->
<g id="Node000010" class="node">
<title>Node10</title>
<g id="a_Node000010"><a xlink:href="group__bme688__interface__driver.html#ga5fb51315cf63b45ad8dd40c5fb5190d1" target="_top" xlink:title="interface receive callback">
<polygon fill="white" stroke="#666666" points="260.75,-624 130.75,-624 130.75,-592 260.75,-592 260.75,-624"/>
<text xml:space="preserve" text-anchor="start" x="138.75" y="-610.5" font-family="Helvetica,sans-Serif" font-size="10.00">bme688_interface_receive</text>
<text xml:space="preserve" text-anchor="middle" x="195.75" y="-598.5" font-family="Helvetica,sans-Serif" font-size="10.00">_callback</text>
</a>
</g>
</g>
<!-- Node1&#45;&gt;Node10 -->
<g id="edge9_Node000001_Node000010" class="edge">
<title>Node1&#45;&gt;Node10</title>
<g id="a_edge9_Node000001_Node000010"><a xlink:title=" ">
<path fill="none" stroke="#63b8ff" d="M50.83,-486.42C61.66,-507.59 89.03,-555.94 125.5,-583 126.85,-584 128.24,-584.96 129.67,-585.89"/>
<polygon fill="#63b8ff" stroke="#63b8ff" points="127.78,-588.84 138.2,-590.75 131.25,-582.76 127.78,-588.84"/>
</a>
</g>
</g>
<!-- Node11 -->
<g id="Node000011" class="node">
<title>Node11</title>
<g id="a_Node000011"><a xlink:href="group__bme688__interface__driver.html#gae307cd8eae9843428f27e6e565b58a43" target="_top" xlink:title="interface spi bus deinit">
<polygon fill="white" stroke="#666666" points="251.38,-574 140.12,-574 140.12,-542 251.38,-542 251.38,-574"/>
<text xml:space="preserve" text-anchor="start" x="148.12" y="-560.5" font-family="Helvetica,sans-Serif" font-size="10.00">bme688_interface_spi</text>
<text xml:space="preserve" text-anchor="middle" x="195.75" y="-548.5" font-family="Helvetica,sans-Serif" font-size="10.00">_deinit</text>
</a>
</g>
</g>
<!-- Node1&#45;&gt;Node11 -->
<g id="edge11_Node000001_Node000011" class="edge">
<title>Node1&#45;&gt;Node11</title>
<g id="a_edge11_Node000001_Node000011"><a xlink:title=" ">
<path fill="none" stroke="#63b8ff" d="M58.03,-486.42C73.12,-498.83 99.89,-519.55 125.5,-533 128.17,-534.4 130.93,-535.75 133.75,-537.06"/>
<polygon fill="#63b8ff" stroke="#63b8ff" points="132.17,-540.19 142.73,-540.96 134.95,-533.77 132.17,-540.19"/>
</a>
</g>
</g>
<!-- Node12 -->
<g id="Node000012" class="node">
<title>Node12</title>
<g id="a_Node000012"><a xlink:href="group__bme688__interface__driver.html#gae4186ca9706f29ba17dab0aaa22a7f69" target="_top" xlink:title="interface spi bus init">
<polygon fill="white" stroke="#666666" points="260.38,-524 131.12,-524 131.12,-504 260.38,-504 260.38,-524"/>
<text xml:space="preserve" text-anchor="middle" x="195.75" y="-510.5" font-family="Helvetica,sans-Serif" font-size="10.00">bme688_interface_spi_init</text>
</a>
</g>
</g>
<!-- Node1&#45;&gt;Node12 -->
<g id="edge12_Node000001_Node000012" class="edge">
<title>Node1&#45;&gt;Node12</title>
<g id="a_edge12_Node000001_Node000012"><a xlink:title=" ">
<path fill="none" stroke="#63b8ff" d="M86.86,-486.48C104.12,-490.89 124.4,-496.06 142.69,-500.72"/>
<polygon fill="#63b8ff" stroke="#63b8ff" points="141.75,-504.1 152.31,-503.18 143.48,-497.31 141.75,-504.1"/>
</a>
</g>
</g>
<!-- Node13 -->
<g id="Node000013" class="node">
<title>Node13</title>
<g id="a_Node000013"><a xlink:href="group__bme688__interface__driver.html#ga86bbeb52c998133476a7de9921fa9495" target="_top" xlink:title="interface spi bus read">
<polygon fill="white" stroke="#666666" points="263.38,-486 128.12,-486 128.12,-466 263.38,-466 263.38,-486"/>
<text xml:space="preserve" text-anchor="middle" x="195.75" y="-472.5" font-family="Helvetica,sans-Serif" font-size="10.00">bme688_interface_spi_read</text>
</a>
</g>
</g>
<!-- Node1&#45;&gt;Node13 -->
<g id="edge13_Node000001_Node000013" class="edge">
<title>Node1&#45;&gt;Node13</title>
<g id="a_edge13_Node000001_Node000013"><a xlink:title=" ">
<path fill="none" stroke="#63b8ff" d="M89.65,-476C98.13,-476 107.26,-476 116.46,-476"/>
<polygon fill="#63b8ff" stroke="#63b8ff" points="116.17,-479.5 126.17,-476 116.17,-472.5 116.17,-479.5"/>
</a>
</g>
</g>
<!-- Node14 -->
<g id="Node000014" class="node">
<title>Node14</title>
<g id="a_Node000014"><a xlink:href="group__bme688__interface__driver.html#ga08805bd054323979e5c949889dabccc2" target="_top" xlink:title="interface spi bus write">
<polygon fill="white" stroke="#666666" points="251.38,-448 140.12,-448 140.12,-416 251.38,-416 251.38,-448"/>
<text xml:space="preserve" text-anchor="start" x="148.12" y="-434.5" font-family="Helvetica,sans-Serif" font-size="10.00">bme688_interface_spi</text>
<text xml:space="preserve" text-anchor="middle" x="195.75" y="-422.5" font-family="Helvetica,sans-Serif" font-size="10.00">_write</text>
</a>
</g>
</g>
<!-- Node1&#45;&gt;Node14 -->
<g id="edge14_Node000001_Node000014" class="edge">
<title>Node1&#45;&gt;Node14</title>
<g id="a_edge14_Node000001_Node000014"><a xlink:title=" ">
<path fill="none" stroke="#63b8ff" d="M81.06,-465.57C95.46,-461.32 112.59,-456.26 129.13,-451.38"/>
<polygon fill="#63b8ff" stroke="#63b8ff" points="129.83,-454.82 138.43,-448.63 127.85,-448.11 129.83,-454.82"/>
</a>
</g>
</g>
<!-- Node15 -->
<g id="Node000015" class="node">
<title>Node15</title>
<g id="a_Node000015"><a xlink:href="group__bme688__base__driver.html#ga1b1a625b7db3c805ffe3a29bac6e042d" target="_top" xlink:title="set the iic address pin">
<polygon fill="white" stroke="#666666" points="251.38,-398 140.12,-398 140.12,-378 251.38,-378 251.38,-398"/>
<text xml:space="preserve" text-anchor="middle" x="195.75" y="-384.5" font-family="Helvetica,sans-Serif" font-size="10.00">bme688_set_addr_pin</text>
</a>
</g>
</g>
<!-- Node1&#45;&gt;Node15 -->
<g id="edge15_Node000001_Node000015" class="edge">
<title>Node1&#45;&gt;Node15</title>
<g id="a_edge15_Node000001_Node000015"><a xlink:title=" ">
<path fill="none" stroke="#63b8ff" d="M54.52,-465.97C68.2,-450.95 96.11,-422.7 125.5,-407 128.69,-405.3 132.04,-403.74 135.49,-402.31"/>
<polygon fill="#63b8ff" stroke="#63b8ff" points="136.42,-405.69 144.58,-398.93 133.99,-399.13 136.42,-405.69"/>
</a>
</g>
</g>
<!-- Node16 -->
<g id="Node000016" class="node">
<title>Node16</title>
<g id="a_Node000016"><a xlink:href="group__bme688__base__driver.html#ga000636080d644b9d2dbf264db5e78e76" target="_top" xlink:title="set filter">
<polygon fill="white" stroke="#666666" points="242.38,-360 149.12,-360 149.12,-340 242.38,-340 242.38,-360"/>
<text xml:space="preserve" text-anchor="middle" x="195.75" y="-346.5" font-family="Helvetica,sans-Serif" font-size="10.00">bme688_set_filter</text>
</a>
</g>
</g>
<!-- Node1&#45;&gt;Node16 -->
<g id="edge16_Node000001_Node000016" class="edge">
<title>Node1&#45;&gt;Node16</title>
<g id="a_edge16_Node000001_Node000016"><a xlink:title=" ">
<path fill="none" stroke="#63b8ff" d="M50.5,-465.67C60.9,-444.23 87.81,-394.74 125.5,-369 129.44,-366.31 133.75,-364 138.22,-362.02"/>
<polygon fill="#63b8ff" stroke="#63b8ff" points="139.38,-365.32 147.48,-358.5 136.88,-358.78 139.38,-365.32"/>
</a>
</g>
</g>
<!-- Node17 -->
<g id="Node000017" class="node">
<title>Node17</title>
<g id="a_Node000017"><a xlink:href="group__bme688__base__driver.html#gad207445415770ef82a8c3602e32f115a" target="_top" xlink:title="enable or disable heater off">
<polygon fill="white" stroke="#666666" points="254.38,-322 137.12,-322 137.12,-302 254.38,-302 254.38,-322"/>
<text xml:space="preserve" text-anchor="middle" x="195.75" y="-308.5" font-family="Helvetica,sans-Serif" font-size="10.00">bme688_set_heater_off</text>
</a>
</g>
</g>
<!-- Node1&#45;&gt;Node17 -->
<g id="edge17_Node000001_Node000017" class="edge">
<title>Node1&#45;&gt;Node17</title>
<g id="a_edge17_Node000001_Node000017"><a xlink:title=" ">
<path fill="none" stroke="#63b8ff" d="M48.37,-465.76C55.71,-439.21 79.03,-367.65 125.5,-331 127.01,-329.81 128.6,-328.69 130.24,-327.64"/>
<polygon fill="#63b8ff" stroke="#63b8ff" points="131.63,-330.86 138.81,-323.08 128.34,-324.68 131.63,-330.86"/>
</a>
</g>
</g>
<!-- Node18 -->
<g id="Node000018" class="node">
<title>Node18</title>
<g id="a_Node000018"><a xlink:href="group__bme688__base__driver.html#gaf099d12d1ab712ba537eeb1ecda59fd0" target="_top" xlink:title="set humidity oversampling">
<polygon fill="white" stroke="#666666" points="251.38,-284 140.12,-284 140.12,-252 251.38,-252 251.38,-284"/>
<text xml:space="preserve" text-anchor="start" x="148.12" y="-270.5" font-family="Helvetica,sans-Serif" font-size="10.00">bme688_set_humidity</text>
<text xml:space="preserve" text-anchor="middle" x="195.75" y="-258.5" font-family="Helvetica,sans-Serif" font-size="10.00">_oversampling</text>
</a>
</g>
</g>
<!-- Node1&#45;&gt;Node18 -->
<g id="edge18_Node000001_Node000018" class="edge">
<title>Node1&#45;&gt;Node18</title>
<g id="a_edge18_Node000001_Node000018"><a xlink:title=" ">
<path fill="none" stroke="#63b8ff" d="M47.33,-465.66C52.57,-434.9 72.15,-343.01 125.5,-293 126.94,-291.65 128.46,-290.37 130.05,-289.16"/>
<polygon fill="#63b8ff" stroke="#63b8ff" points="131.93,-292.11 138.45,-283.76 128.14,-286.22 131.93,-292.11"/>
</a>
</g>
</g>
<!-- Node19 -->
<g id="Node000019" class="node">
<title>Node19</title>
<g id="a_Node000019"><a xlink:href="group__bme688__base__driver.html#ga01214bebfbe2d48248817da49080e054" target="_top" xlink:title="set the interface">
<polygon fill="white" stroke="#666666" points="251.75,-234 139.75,-234 139.75,-214 251.75,-214 251.75,-234"/>
<text xml:space="preserve" text-anchor="middle" x="195.75" y="-220.5" font-family="Helvetica,sans-Serif" font-size="10.00">bme688_set_interface</text>
</a>
</g>
</g>
<!-- Node1&#45;&gt;Node19 -->
<g id="edge19_Node000001_Node000019" class="edge">
<title>Node1&#45;&gt;Node19</title>
<g id="a_edge19_Node000001_Node000019"><a xlink:title=" ">
<path fill="none" stroke="#63b8ff" d="M46.03,-465.85C47.6,-429.78 57.89,-306.54 125.5,-243 126.91,-241.68 128.39,-240.45 129.95,-239.3"/>
<polygon fill="#63b8ff" stroke="#63b8ff" points="131.4,-242.51 138.2,-234.39 127.82,-236.5 131.4,-242.51"/>
</a>
</g>
</g>
<!-- Node20 -->
<g id="Node000020" class="node">
<title>Node20</title>
<g id="a_Node000020"><a xlink:href="group__bme688__base__driver.html#ga3a6d95d200d69c598498cf01de89b341" target="_top" xlink:title="set mode">
<polygon fill="white" stroke="#666666" points="245,-196 146.5,-196 146.5,-176 245,-176 245,-196"/>
<text xml:space="preserve" text-anchor="middle" x="195.75" y="-182.5" font-family="Helvetica,sans-Serif" font-size="10.00">bme688_set_mode</text>
</a>
</g>
</g>
<!-- Node1&#45;&gt;Node20 -->
<g id="edge20_Node000001_Node000020" class="edge">
<title>Node1&#45;&gt;Node20</title>
<g id="a_edge20_Node000001_Node000020"><a xlink:title=" ">
<path fill="none" stroke="#63b8ff" d="M45.47,-465.64C44.96,-425.74 48.68,-280.42 125.5,-205 128.57,-201.98 132.08,-199.44 135.84,-197.28"/>
<polygon fill="#63b8ff" stroke="#63b8ff" points="137.29,-200.47 144.91,-193.1 134.36,-194.11 137.29,-200.47"/>
</a>
</g>
</g>
<!-- Node21 -->
<g id="Node000021" class="node">
<title>Node21</title>
<g id="a_Node000021"><a xlink:href="group__bme688__base__driver.html#gaf1cb055b8479bb18479d5e2c3a3df04a" target="_top" xlink:title="set pressure oversampling">
<polygon fill="white" stroke="#666666" points="251.75,-158 139.75,-158 139.75,-126 251.75,-126 251.75,-158"/>
<text xml:space="preserve" text-anchor="start" x="147.75" y="-144.5" font-family="Helvetica,sans-Serif" font-size="10.00">bme688_set_pressure</text>
<text xml:space="preserve" text-anchor="middle" x="195.75" y="-132.5" font-family="Helvetica,sans-Serif" font-size="10.00">_oversampling</text>
</a>
</g>
</g>
<!-- Node1&#45;&gt;Node21 -->
<g id="edge21_Node000001_Node000021" class="edge">
<title>Node1&#45;&gt;Node21</title>
<g id="a_edge21_Node000001_Node000021"><a xlink:title=" ">
<path fill="none" stroke="#63b8ff" d="M45.2,-465.62C43.53,-422.79 42.89,-257.75 125.5,-167 126.98,-165.37 128.58,-163.85 130.27,-162.42"/>
<polygon fill="#63b8ff" stroke="#63b8ff" points="131.93,-165.53 138.15,-156.95 127.94,-159.78 131.93,-165.53"/>
</a>
</g>
</g>
<!-- Node22 -->
<g id="Node000022" class="node">
<title>Node22</title>
<g id="a_Node000022"><a xlink:href="group__bme688__base__driver.html#ga505dc892644870e991baaa3dc733f1bf" target="_top" xlink:title="enable or disable run gas">
<polygon fill="white" stroke="#666666" points="250.25,-108 141.25,-108 141.25,-88 250.25,-88 250.25,-108"/>
<text xml:space="preserve" text-anchor="middle" x="195.75" y="-94.5" font-family="Helvetica,sans-Serif" font-size="10.00">bme688_set_run_gas</text>
</a>
</g>
</g>
<!-- Node1&#45;&gt;Node22 -->
<g id="edge22_Node000001_Node000022" class="edge">
<title>Node1&#45;&gt;Node22</title>
<g id="a_edge22_Node000001_Node000022"><a xlink:title=" ">
<path fill="none" stroke="#63b8ff" d="M46.63,-465.6C51.37,-412.23 75.42,-169.6 125.5,-117 127.28,-115.13 129.23,-113.44 131.3,-111.91"/>
<polygon fill="#63b8ff" stroke="#63b8ff" points="132.92,-115.02 139.78,-106.94 129.38,-108.98 132.92,-115.02"/>
</a>
</g>
</g>
<!-- Node23 -->
<g id="Node000023" class="node">
<title>Node23</title>
<g id="a_Node000023"><a xlink:href="group__bme688__base__driver.html#ga64e142b37dbf5f9a8c2be44604d81c16" target="_top" xlink:title="set spi wire">
<polygon fill="white" stroke="#666666" points="251,-70 140.5,-70 140.5,-50 251,-50 251,-70"/>
<text xml:space="preserve" text-anchor="middle" x="195.75" y="-56.5" font-family="Helvetica,sans-Serif" font-size="10.00">bme688_set_spi_wire</text>
</a>
</g>
</g>
<!-- Node1&#45;&gt;Node23 -->
<g id="edge23_Node000001_Node000023" class="edge">
<title>Node1&#45;&gt;Node23</title>
<g id="a_edge23_Node000001_Node000023"><a xlink:title=" ">
<path fill="none" stroke="#63b8ff" d="M46.39,-465.65C50.1,-409.09 70.59,-137.86 125.5,-79 127.06,-77.32 128.76,-75.79 130.56,-74.39"/>
<polygon fill="#63b8ff" stroke="#63b8ff" points="132.32,-77.41 139.02,-69.21 128.67,-71.44 132.32,-77.41"/>
</a>
</g>
</g>
<!-- Node24 -->
<g id="Node000024" class="node">
<title>Node24</title>
<g id="a_Node000024"><a xlink:href="group__bme688__base__driver.html#ga3583f4268d03e5c2539e36727e91605a" target="_top" xlink:title="set temperature oversampling">
<polygon fill="white" stroke="#666666" points="258.88,-32 132.62,-32 132.62,0 258.88,0 258.88,-32"/>
<text xml:space="preserve" text-anchor="start" x="140.62" y="-18.5" font-family="Helvetica,sans-Serif" font-size="10.00">bme688_set_temperature</text>
<text xml:space="preserve" text-anchor="middle" x="195.75" y="-6.5" font-family="Helvetica,sans-Serif" font-size="10.00">_oversampling</text>
</a>
</g>
</g>
<!-- Node1&#45;&gt;Node24 -->
<g id="edge24_Node000001_Node000024" class="edge">
<title>Node1&#45;&gt;Node24</title>
<g id="a_edge24_Node000001_Node000024"><a xlink:title=" ">
<path fill="none" stroke="#63b8ff" d="M46.28,-465.54C49.53,-405.81 68.43,-108.37 125.5,-41 125.85,-40.59 126.21,-40.18 126.58,-39.78"/>
<polygon fill="#63b8ff" stroke="#63b8ff" points="128.77,-42.5 134.03,-33.31 124.19,-37.22 128.77,-42.5"/>
</a>
</g>
</g>
<!-- Node10&#45;&gt;Node4 -->
<g id="edge10_Node000010_Node000004" class="edge">
<title>Node10&#45;&gt;Node4</title>
<g id="a_edge10_Node000010_Node000004"><a xlink:title=" ">
<path fill="none" stroke="#63b8ff" d="M250.18,-624.34C255.71,-626.89 261.09,-629.77 266,-633 298.32,-654.28 327.5,-688.39 345.31,-711.7"/>
<polygon fill="#63b8ff" stroke="#63b8ff" points="342.31,-713.53 351.1,-719.45 347.92,-709.34 342.31,-713.53"/>
</a>
</g>
</g>
</g>
</svg>
