<?xml version="1.0" encoding="UTF-8" standalone="no"?>
<!DOCTYPE svg PUBLIC "-//W3C//DTD SVG 1.1//EN"
 "http://www.w3.org/Graphics/SVG/1.1/DTD/svg11.dtd">
<!-- Generated by graphviz version 14.1.1 (20251213.1925)
 -->
<!-- Title: bme688_parallel_test Pages: 1 -->
<svg width="293pt" height="1036pt"
 viewBox="0.00 0.00 293.00 1036.00" xmlns="http://www.w3.org/2000/svg" xmlns:xlink="http://www.w3.org/1999/xlink">
<g id="graph0" class="graph" transform="scale(1 1) rotate(0) translate(4 1032)">
<title>bme688_parallel_test</title>
<!-- Node1 -->
<g id="Node000001" class="node">
<title>Node1</title>
<g id="a_Node000001"><a xlink:title="parallel test">
<polygon fill="#999999" stroke="#666666" points="108.25,-518 0,-518 0,-498 108.25,-498 108.25,-518"/>
<text xml:space="preserve" text-anchor="middle" x="54.12" y="-504.5" font-family="Helvetica,sans-Serif" font-size="10.00">bme688_parallel_test</text>
</a>
</g>
</g>
<!-- Node2 -->
<g id="Node000002" class="node">
<title>Node2</title>
<g id="a_Node000002"><a xlink:href="group__bme688__base__driver.html#gaa1ed2e75dcc1ee8174c43557c7f87694" target="_top" xlink:title="close the chip">
<polygon fill="white" stroke="#666666" points="254,-1028 175,-1028 175,-1008 254,-1008 254,-1028"/>
<text xml:space="preserve" text-anchor="middle" x="214.5" y="-1014.5" font-family="Helvetica,sans-Serif" font-size="10.00">bme688_deinit</text>
</a>
</g>
</g>
<!-- Node1&#45;&gt;Node2 -->
<g id="edge1_Node000001_Node000002" class="edge">
<title>Node1&#45;&gt;Node2</title>
<g id="a_edge1_Node000001_Node000002"><a xlink:title=" ">
<path fill="none" stroke="#63b8ff" d="M55.54,-518.18C58.33,-581.85 76.39,-924.87 144.25,-999 149.51,-1004.75 156.33,-1008.82 163.63,-1011.69"/>
<polygon fill="#63b8ff" stroke="#63b8ff" points="162.52,-1015.01 173.1,-1014.65 164.6,-1008.33 162.52,-1015.01"/>
</a>
</g>
</g>
<!-- Node3 -->
<g id="Node000003" class="node">
<title>Node3</title>
<g id="a_Node000003"><a xlink:href="group__bme688__base__driver.html#ga75cb2a6407bdf70b3b9beee58b2cef8b" target="_top" xlink:title="get chip&#39;s information">
<polygon fill="white" stroke="#666666" points="250.25,-990 178.75,-990 178.75,-970 250.25,-970 250.25,-990"/>
<text xml:space="preserve" text-anchor="middle" x="214.5" y="-976.5" font-family="Helvetica,sans-Serif" font-size="10.00">bme688_info</text>
</a>
</g>
</g>
<!-- Node1&#45;&gt;Node3 -->
<g id="edge2_Node000001_Node000003" class="edge">
<title>Node1&#45;&gt;Node3</title>
<g id="a_edge2_Node000001_Node000003"><a xlink:title=" ">
<path fill="none" stroke="#63b8ff" d="M55.71,-518.18C59.38,-578.91 81.24,-893.18 144.25,-961 150.46,-967.68 158.77,-972.09 167.47,-974.99"/>
<polygon fill="#63b8ff" stroke="#63b8ff" points="166.56,-978.37 177.12,-977.52 168.34,-971.6 166.56,-978.37"/>
</a>
</g>
</g>
<!-- Node4 -->
<g id="Node000004" class="node">
<title>Node4</title>
<g id="a_Node000004"><a xlink:href="group__bme688__base__driver.html#ga753c8c9052516654cc156183322ec7a2" target="_top" xlink:title="initialize the chip">
<polygon fill="white" stroke="#666666" points="248.75,-952 180.25,-952 180.25,-932 248.75,-932 248.75,-952"/>
<text xml:space="preserve" text-anchor="middle" x="214.5" y="-938.5" font-family="Helvetica,sans-Serif" font-size="10.00">bme688_init</text>
</a>
</g>
</g>
<!-- Node1&#45;&gt;Node4 -->
<g id="edge3_Node000001_Node000004" class="edge">
<title>Node1&#45;&gt;Node4</title>
<g id="a_edge3_Node000001_Node000004"><a xlink:title=" ">
<path fill="none" stroke="#63b8ff" d="M55.92,-518.44C60.6,-576.75 86.16,-861.55 144.25,-923 150.9,-930.03 159.88,-934.55 169.17,-937.42"/>
<polygon fill="#63b8ff" stroke="#63b8ff" points="168.08,-940.76 178.63,-939.74 169.75,-933.96 168.08,-940.76"/>
</a>
</g>
</g>
<!-- Node5 -->
<g id="Node000005" class="node">
<title>Node5</title>
<g id="a_Node000005"><a xlink:href="group__bme688__interface__driver.html#gabbd5e3c2cfb83dee9bc85f8af5a2e9b3" target="_top" xlink:title="interface print format data">
<polygon fill="white" stroke="#666666" points="276.88,-914 152.12,-914 152.12,-882 276.88,-882 276.88,-914"/>
<text xml:space="preserve" text-anchor="start" x="160.12" y="-900.5" font-family="Helvetica,sans-Serif" font-size="10.00">bme688_interface_debug</text>
<text xml:space="preserve" text-anchor="middle" x="214.5" y="-888.5" font-family="Helvetica,sans-Serif" font-size="10.00">_print</text>
</a>
</g>
</g>
<!-- Node1&#45;&gt;Node5 -->
<g id="edge4_Node000001_Node000005" class="edge">
<title>Node1&#45;&gt;Node5</title>
<g id="a_edge4_Node000001_Node000005"><a xlink:title=" ">
<path fill="none" stroke="#63b8ff" d="M56.31,-518.16C62.68,-571.38 94.55,-817.68 144.25,-873 144.72,-873.52 145.2,-874.03 145.69,-874.53"/>
<polygon fill="#63b8ff" stroke="#63b8ff" points="143.34,-877.13 153.29,-880.76 147.77,-871.71 143.34,-877.13"/>
</a>
</g>
</g>
<!-- Node6 -->
<g id="Node000006" class="node">
<title>Node6</title>
<g id="a_Node000006"><a xlink:href="group__bme688__interface__driver.html#ga72691d5cf0ac12f7b9a5dc7ca84ee980" target="_top" xlink:title="interface delay ms">
<polygon fill="white" stroke="#666666" points="284.75,-864 144.25,-864 144.25,-844 284.75,-844 284.75,-864"/>
<text xml:space="preserve" text-anchor="middle" x="214.5" y="-850.5" font-family="Helvetica,sans-Serif" font-size="10.00">bme688_interface_delay_ms</text>
</a>
</g>
</g>
<!-- Node1&#45;&gt;Node6 -->
<g id="edge5_Node000001_Node000006" class="edge">
<title>Node1&#45;&gt;Node6</title>
<g id="a_edge5_Node000001_Node000006"><a xlink:title=" ">
<path fill="none" stroke="#63b8ff" d="M56.57,-518.48C63.78,-569.12 97.27,-787.94 144.25,-835 145,-835.75 145.78,-836.48 146.58,-837.17"/>
<polygon fill="#63b8ff" stroke="#63b8ff" points="144.51,-839.99 154.74,-842.75 148.46,-834.22 144.51,-839.99"/>
</a>
</g>
</g>
<!-- Node7 -->
<g id="Node000007" class="node">
<title>Node7</title>
<g id="a_Node000007"><a xlink:href="group__bme688__interface__driver.html#gaebb3c736d1794ece6df6e1d2cb5e8138" target="_top" xlink:title="interface iic bus deinit">
<polygon fill="white" stroke="#666666" points="268.62,-826 160.38,-826 160.38,-794 268.62,-794 268.62,-826"/>
<text xml:space="preserve" text-anchor="start" x="168.38" y="-812.5" font-family="Helvetica,sans-Serif" font-size="10.00">bme688_interface_iic</text>
<text xml:space="preserve" text-anchor="middle" x="214.5" y="-800.5" font-family="Helvetica,sans-Serif" font-size="10.00">_deinit</text>
</a>
</g>
</g>
<!-- Node1&#45;&gt;Node7 -->
<g id="edge6_Node000001_Node000007" class="edge">
<title>Node1&#45;&gt;Node7</title>
<g id="a_edge6_Node000001_Node000007"><a xlink:title=" ">
<path fill="none" stroke="#63b8ff" d="M55.35,-518.42C56.77,-558.61 67.23,-705.22 144.25,-785 146.23,-787.05 148.39,-788.94 150.69,-790.67"/>
<polygon fill="#63b8ff" stroke="#63b8ff" points="148.5,-793.43 158.83,-795.8 152.24,-787.5 148.5,-793.43"/>
</a>
</g>
</g>
<!-- Node8 -->
<g id="Node000008" class="node">
<title>Node8</title>
<g id="a_Node000008"><a xlink:href="group__bme688__interface__driver.html#gaf36f3e2219fb2712a34640d20a23bbce" target="_top" xlink:title="interface iic bus init">
<polygon fill="white" stroke="#666666" points="277.62,-776 151.38,-776 151.38,-756 277.62,-756 277.62,-776"/>
<text xml:space="preserve" text-anchor="middle" x="214.5" y="-762.5" font-family="Helvetica,sans-Serif" font-size="10.00">bme688_interface_iic_init</text>
</a>
</g>
</g>
<!-- Node1&#45;&gt;Node8 -->
<g id="edge7_Node000001_Node000008" class="edge">
<title>Node1&#45;&gt;Node8</title>
<g id="a_edge7_Node000001_Node000008"><a xlink:title=" ">
<path fill="none" stroke="#63b8ff" d="M55.76,-518.43C58.61,-555.51 73.34,-682.14 144.25,-747 145.31,-747.97 146.42,-748.89 147.56,-749.77"/>
<polygon fill="#63b8ff" stroke="#63b8ff" points="145.36,-752.52 155.7,-754.81 149.04,-746.57 145.36,-752.52"/>
</a>
</g>
</g>
<!-- Node9 -->
<g id="Node000009" class="node">
<title>Node9</title>
<g id="a_Node000009"><a xlink:href="group__bme688__interface__driver.html#ga6d0ef4ee3dbeed86926a3639e43715ef" target="_top" xlink:title="interface iic bus read">
<polygon fill="white" stroke="#666666" points="280.62,-738 148.38,-738 148.38,-718 280.62,-718 280.62,-738"/>
<text xml:space="preserve" text-anchor="middle" x="214.5" y="-724.5" font-family="Helvetica,sans-Serif" font-size="10.00">bme688_interface_iic_read</text>
</a>
</g>
</g>
<!-- Node1&#45;&gt;Node9 -->
<g id="edge8_Node000001_Node000009" class="edge">
<title>Node1&#45;&gt;Node9</title>
<g id="a_edge8_Node000001_Node000009"><a xlink:title=" ">
<path fill="none" stroke="#63b8ff" d="M56.53,-518.15C61.65,-551.06 82.33,-655.71 144.25,-709 145.37,-709.96 146.53,-710.87 147.73,-711.74"/>
<polygon fill="#63b8ff" stroke="#63b8ff" points="145.85,-714.7 156.25,-716.76 149.41,-708.67 145.85,-714.7"/>
</a>
</g>
</g>
<!-- Node10 -->
<g id="Node000010" class="node">
<title>Node10</title>
<g id="a_Node000010"><a xlink:href="group__bme688__interface__driver.html#ga2a4b1f97b248b9d3a2105d49f911aab2" target="_top" xlink:title="interface iic bus write">
<polygon fill="white" stroke="#666666" points="268.62,-700 160.38,-700 160.38,-668 268.62,-668 268.62,-700"/>
<text xml:space="preserve" text-anchor="start" x="168.38" y="-686.5" font-family="Helvetica,sans-Serif" font-size="10.00">bme688_interface_iic</text>
<text xml:space="preserve" text-anchor="middle" x="214.5" y="-674.5" font-family="Helvetica,sans-Serif" font-size="10.00">_write</text>
</a>
</g>
</g>
<!-- Node1&#45;&gt;Node10 -->
<g id="edge9_Node000001_Node000010" class="edge">
<title>Node1&#45;&gt;Node10</title>
<g id="a_edge9_Node000001_Node000010"><a xlink:title=" ">
<path fill="none" stroke="#63b8ff" d="M58.47,-518.45C67.68,-545.59 95.97,-618.99 144.25,-659 146.17,-660.59 148.2,-662.08 150.31,-663.49"/>
<polygon fill="#63b8ff" stroke="#63b8ff" points="148.27,-666.35 158.68,-668.31 151.76,-660.28 148.27,-666.35"/>
</a>
</g>
</g>
<!-- Node11 -->
<g id="Node000011" class="node">
<title>Node11</title>
<g id="a_Node000011"><a xlink:href="group__bme688__interface__driver.html#gae307cd8eae9843428f27e6e565b58a43" target="_top" xlink:title="interface spi bus deinit">
<polygon fill="white" stroke="#666666" points="270.12,-650 158.88,-650 158.88,-618 270.12,-618 270.12,-650"/>
<text xml:space="preserve" text-anchor="start" x="166.88" y="-636.5" font-family="Helvetica,sans-Serif" font-size="10.00">bme688_interface_spi</text>
<text xml:space="preserve" text-anchor="middle" x="214.5" y="-624.5" font-family="Helvetica,sans-Serif" font-size="10.00">_deinit</text>
</a>
</g>
</g>
<!-- Node1&#45;&gt;Node11 -->
<g id="edge10_Node000001_Node000011" class="edge">
<title>Node1&#45;&gt;Node11</title>
<g id="a_edge10_Node000001_Node000011"><a xlink:title=" ">
<path fill="none" stroke="#63b8ff" d="M61.67,-518.41C74.89,-538.64 106.73,-583.49 144.25,-609 146.03,-610.21 147.88,-611.37 149.78,-612.49"/>
<polygon fill="#63b8ff" stroke="#63b8ff" points="147.79,-615.39 158.27,-616.93 151.04,-609.19 147.79,-615.39"/>
</a>
</g>
</g>
<!-- Node12 -->
<g id="Node000012" class="node">
<title>Node12</title>
<g id="a_Node000012"><a xlink:href="group__bme688__interface__driver.html#gae4186ca9706f29ba17dab0aaa22a7f69" target="_top" xlink:title="interface spi bus init">
<polygon fill="white" stroke="#666666" points="279.12,-600 149.88,-600 149.88,-580 279.12,-580 279.12,-600"/>
<text xml:space="preserve" text-anchor="middle" x="214.5" y="-586.5" font-family="Helvetica,sans-Serif" font-size="10.00">bme688_interface_spi_init</text>
</a>
</g>
</g>
<!-- Node1&#45;&gt;Node12 -->
<g id="edge11_Node000001_Node000012" class="edge">
<title>Node1&#45;&gt;Node12</title>
<g id="a_edge11_Node000001_Node000012"><a xlink:title=" ">
<path fill="none" stroke="#63b8ff" d="M66.96,-518.44C83.28,-532.32 114.1,-556.75 144.25,-571 148.02,-572.78 151.99,-574.42 156.04,-575.93"/>
<polygon fill="#63b8ff" stroke="#63b8ff" points="154.85,-579.22 165.44,-579.12 157.1,-572.59 154.85,-579.22"/>
</a>
</g>
</g>
<!-- Node13 -->
<g id="Node000013" class="node">
<title>Node13</title>
<g id="a_Node000013"><a xlink:href="group__bme688__interface__driver.html#ga86bbeb52c998133476a7de9921fa9495" target="_top" xlink:title="interface spi bus read">
<polygon fill="white" stroke="#666666" points="282.12,-562 146.88,-562 146.88,-542 282.12,-542 282.12,-562"/>
<text xml:space="preserve" text-anchor="middle" x="214.5" y="-548.5" font-family="Helvetica,sans-Serif" font-size="10.00">bme688_interface_spi_read</text>
</a>
</g>
</g>
<!-- Node1&#45;&gt;Node13 -->
<g id="edge12_Node000001_Node000013" class="edge">
<title>Node1&#45;&gt;Node13</title>
<g id="a_edge12_Node000001_Node000013"><a xlink:title=" ">
<path fill="none" stroke="#63b8ff" d="M91.97,-518.39C108.02,-522.9 127.06,-528.23 144.25,-533 150.87,-534.84 157.85,-536.76 164.73,-538.66"/>
<polygon fill="#63b8ff" stroke="#63b8ff" points="163.36,-541.91 173.93,-541.18 165.22,-535.16 163.36,-541.91"/>
</a>
</g>
</g>
<!-- Node14 -->
<g id="Node000014" class="node">
<title>Node14</title>
<g id="a_Node000014"><a xlink:href="group__bme688__interface__driver.html#ga08805bd054323979e5c949889dabccc2" target="_top" xlink:title="interface spi bus write">
<polygon fill="white" stroke="#666666" points="270.12,-524 158.88,-524 158.88,-492 270.12,-492 270.12,-524"/>
<text xml:space="preserve" text-anchor="start" x="166.88" y="-510.5" font-family="Helvetica,sans-Serif" font-size="10.00">bme688_interface_spi</text>
<text xml:space="preserve" text-anchor="middle" x="214.5" y="-498.5" font-family="Helvetica,sans-Serif" font-size="10.00">_write</text>
</a>
</g>
</g>
<!-- Node1&#45;&gt;Node14 -->
<g id="edge13_Node000001_Node000014" class="edge">
<title>Node1&#45;&gt;Node14</title>
<g id="a_edge13_Node000001_Node000014"><a xlink:title=" ">
<path fill="none" stroke="#63b8ff" d="M108.74,-508C121.17,-508 134.53,-508 147.42,-508"/>
<polygon fill="#63b8ff" stroke="#63b8ff" points="147.07,-511.5 157.07,-508 147.07,-504.5 147.07,-511.5"/>
</a>
</g>
</g>
<!-- Node15 -->
<g id="Node000015" class="node">
<title>Node15</title>
<g id="a_Node000015"><a xlink:href="group__bme688__base__driver.html#ga477969958ac7dea878931da6cb8fe9ec" target="_top" xlink:title="parallel config">
<polygon fill="white" stroke="#666666" points="273.5,-474 155.5,-474 155.5,-454 273.5,-454 273.5,-474"/>
<text xml:space="preserve" text-anchor="middle" x="214.5" y="-460.5" font-family="Helvetica,sans-Serif" font-size="10.00">bme688_parallel_config</text>
</a>
</g>
</g>
<!-- Node1&#45;&gt;Node15 -->
<g id="edge14_Node000001_Node000015" class="edge">
<title>Node1&#45;&gt;Node15</title>
<g id="a_edge14_Node000001_Node000015"><a xlink:title=" ">
<path fill="none" stroke="#63b8ff" d="M91.97,-497.61C108.02,-493.1 127.06,-487.77 144.25,-483 150.87,-481.16 157.85,-479.24 164.73,-477.34"/>
<polygon fill="#63b8ff" stroke="#63b8ff" points="165.22,-480.84 173.93,-474.82 163.36,-474.09 165.22,-480.84"/>
</a>
</g>
</g>
<!-- Node16 -->
<g id="Node000016" class="node">
<title>Node16</title>
<g id="a_Node000016"><a xlink:href="group__bme688__base__driver.html#gad6f148128a11221c30db7ad9272cf39c" target="_top" xlink:title="parallel progress">
<polygon fill="white" stroke="#666666" points="279.12,-436 149.88,-436 149.88,-416 279.12,-416 279.12,-436"/>
<text xml:space="preserve" text-anchor="middle" x="214.5" y="-422.5" font-family="Helvetica,sans-Serif" font-size="10.00">bme688_parallel_progress</text>
</a>
</g>
</g>
<!-- Node1&#45;&gt;Node16 -->
<g id="edge15_Node000001_Node000016" class="edge">
<title>Node1&#45;&gt;Node16</title>
<g id="a_edge15_Node000001_Node000016"><a xlink:title=" ">
<path fill="none" stroke="#63b8ff" d="M66.96,-497.56C83.28,-483.68 114.1,-459.25 144.25,-445 148.02,-443.22 151.99,-441.58 156.04,-440.07"/>
<polygon fill="#63b8ff" stroke="#63b8ff" points="157.1,-443.41 165.44,-436.88 154.85,-436.78 157.1,-443.41"/>
</a>
</g>
</g>
<!-- Node17 -->
<g id="Node000017" class="node">
<title>Node17</title>
<g id="a_Node000017"><a xlink:href="group__bme688__base__driver.html#ga1b1a625b7db3c805ffe3a29bac6e042d" target="_top" xlink:title="set the iic address pin">
<polygon fill="white" stroke="#666666" points="270.12,-398 158.88,-398 158.88,-378 270.12,-378 270.12,-398"/>
<text xml:space="preserve" text-anchor="middle" x="214.5" y="-384.5" font-family="Helvetica,sans-Serif" font-size="10.00">bme688_set_addr_pin</text>
</a>
</g>
</g>
<!-- Node1&#45;&gt;Node17 -->
<g id="edge16_Node000001_Node000017" class="edge">
<title>Node1&#45;&gt;Node17</title>
<g id="a_edge16_Node000001_Node000017"><a xlink:title=" ">
<path fill="none" stroke="#63b8ff" d="M61.3,-497.64C74.1,-477.1 105.56,-431.14 144.25,-407 146.66,-405.5 149.18,-404.11 151.79,-402.84"/>
<polygon fill="#63b8ff" stroke="#63b8ff" points="152.92,-406.16 160.75,-399.02 150.17,-399.72 152.92,-406.16"/>
</a>
</g>
</g>
<!-- Node18 -->
<g id="Node000018" class="node">
<title>Node18</title>
<g id="a_Node000018"><a xlink:href="group__bme688__base__driver.html#ga000636080d644b9d2dbf264db5e78e76" target="_top" xlink:title="set filter">
<polygon fill="white" stroke="#666666" points="261.12,-360 167.88,-360 167.88,-340 261.12,-340 261.12,-360"/>
<text xml:space="preserve" text-anchor="middle" x="214.5" y="-346.5" font-family="Helvetica,sans-Serif" font-size="10.00">bme688_set_filter</text>
</a>
</g>
</g>
<!-- Node1&#45;&gt;Node18 -->
<g id="edge17_Node000001_Node000018" class="edge">
<title>Node1&#45;&gt;Node18</title>
<g id="a_edge17_Node000001_Node000018"><a xlink:title=" ">
<path fill="none" stroke="#63b8ff" d="M58.69,-497.79C68.24,-472.01 96.91,-403.82 144.25,-369 148.26,-366.05 152.7,-363.56 157.33,-361.46"/>
<polygon fill="#63b8ff" stroke="#63b8ff" points="158.25,-364.86 166.31,-357.99 155.72,-358.33 158.25,-364.86"/>
</a>
</g>
</g>
<!-- Node19 -->
<g id="Node000019" class="node">
<title>Node19</title>
<g id="a_Node000019"><a xlink:href="group__bme688__base__driver.html#gad207445415770ef82a8c3602e32f115a" target="_top" xlink:title="enable or disable heater off">
<polygon fill="white" stroke="#666666" points="273.12,-322 155.88,-322 155.88,-302 273.12,-302 273.12,-322"/>
<text xml:space="preserve" text-anchor="middle" x="214.5" y="-308.5" font-family="Helvetica,sans-Serif" font-size="10.00">bme688_set_heater_off</text>
</a>
</g>
</g>
<!-- Node1&#45;&gt;Node19 -->
<g id="edge18_Node000001_Node000019" class="edge">
<title>Node1&#45;&gt;Node19</title>
<g id="a_edge18_Node000001_Node000019"><a xlink:title=" ">
<path fill="none" stroke="#63b8ff" d="M57.21,-497.78C63.96,-467.41 88.08,-376.99 144.25,-331 145.58,-329.91 146.96,-328.89 148.39,-327.92"/>
<polygon fill="#63b8ff" stroke="#63b8ff" points="150.05,-331.01 157.09,-323.09 146.65,-324.89 150.05,-331.01"/>
</a>
</g>
</g>
<!-- Node20 -->
<g id="Node000020" class="node">
<title>Node20</title>
<g id="a_Node000020"><a xlink:href="group__bme688__base__driver.html#gaf099d12d1ab712ba537eeb1ecda59fd0" target="_top" xlink:title="set humidity oversampling">
<polygon fill="white" stroke="#666666" points="270.12,-284 158.88,-284 158.88,-252 270.12,-252 270.12,-284"/>
<text xml:space="preserve" text-anchor="start" x="166.88" y="-270.5" font-family="Helvetica,sans-Serif" font-size="10.00">bme688_set_humidity</text>
<text xml:space="preserve" text-anchor="middle" x="214.5" y="-258.5" font-family="Helvetica,sans-Serif" font-size="10.00">_oversampling</text>
</a>
</g>
</g>
<!-- Node1&#45;&gt;Node20 -->
<g id="edge19_Node000001_Node000020" class="edge">
<title>Node1&#45;&gt;Node20</title>
<g id="a_edge19_Node000001_Node000020"><a xlink:title=" ">
<path fill="none" stroke="#63b8ff" d="M56.42,-497.84C61.26,-463.86 81.41,-352.98 144.25,-293 145.68,-291.63 147.19,-290.34 148.77,-289.12"/>
<polygon fill="#63b8ff" stroke="#63b8ff" points="150.65,-292.07 157.13,-283.69 146.84,-286.2 150.65,-292.07"/>
</a>
</g>
</g>
<!-- Node21 -->
<g id="Node000021" class="node">
<title>Node21</title>
<g id="a_Node000021"><a xlink:href="group__bme688__base__driver.html#ga01214bebfbe2d48248817da49080e054" target="_top" xlink:title="set the interface">
<polygon fill="white" stroke="#666666" points="270.5,-234 158.5,-234 158.5,-214 270.5,-214 270.5,-234"/>
<text xml:space="preserve" text-anchor="middle" x="214.5" y="-220.5" font-family="Helvetica,sans-Serif" font-size="10.00">bme688_set_interface</text>
</a>
</g>
</g>
<!-- Node1&#45;&gt;Node21 -->
<g id="edge20_Node000001_Node000021" class="edge">
<title>Node1&#45;&gt;Node21</title>
<g id="a_edge20_Node000001_Node000021"><a xlink:title=" ">
<path fill="none" stroke="#63b8ff" d="M55.33,-497.57C56.69,-458.04 66.98,-316.01 144.25,-243 145.65,-241.68 147.14,-240.44 148.69,-239.29"/>
<polygon fill="#63b8ff" stroke="#63b8ff" points="150.14,-242.5 156.93,-234.37 146.55,-236.49 150.14,-242.5"/>
</a>
</g>
</g>
<!-- Node22 -->
<g id="Node000022" class="node">
<title>Node22</title>
<g id="a_Node000022"><a xlink:href="group__bme688__base__driver.html#ga3a6d95d200d69c598498cf01de89b341" target="_top" xlink:title="set mode">
<polygon fill="white" stroke="#666666" points="263.75,-196 165.25,-196 165.25,-176 263.75,-176 263.75,-196"/>
<text xml:space="preserve" text-anchor="middle" x="214.5" y="-182.5" font-family="Helvetica,sans-Serif" font-size="10.00">bme688_set_mode</text>
</a>
</g>
</g>
<!-- Node1&#45;&gt;Node22 -->
<g id="edge21_Node000001_Node000022" class="edge">
<title>Node1&#45;&gt;Node22</title>
<g id="a_edge21_Node000001_Node000022"><a xlink:title=" ">
<path fill="none" stroke="#63b8ff" d="M54.82,-497.61C54.17,-454.77 57.59,-290.09 144.25,-205 147.32,-201.98 150.82,-199.44 154.59,-197.28"/>
<polygon fill="#63b8ff" stroke="#63b8ff" points="156.04,-200.47 163.66,-193.1 153.11,-194.11 156.04,-200.47"/>
</a>
</g>
</g>
<!-- Node23 -->
<g id="Node000023" class="node">
<title>Node23</title>
<g id="a_Node000023"><a xlink:href="group__bme688__base__driver.html#gaf1cb055b8479bb18479d5e2c3a3df04a" target="_top" xlink:title="set pressure oversampling">
<polygon fill="white" stroke="#666666" points="270.5,-158 158.5,-158 158.5,-126 270.5,-126 270.5,-158"/>
<text xml:space="preserve" text-anchor="start" x="166.5" y="-144.5" font-family="Helvetica,sans-Serif" font-size="10.00">bme688_set_pressure</text>
<text xml:space="preserve" text-anchor="middle" x="214.5" y="-132.5" font-family="Helvetica,sans-Serif" font-size="10.00">_oversampling</text>
</a>
</g>
</g>
<!-- Node1&#45;&gt;Node23 -->
<g id="edge22_Node000001_Node000023" class="edge">
<title>Node1&#45;&gt;Node23</title>
<g id="a_edge22_Node000001_Node000023"><a xlink:title=" ">
<path fill="none" stroke="#63b8ff" d="M54.61,-497.79C52.9,-452.56 52.04,-267.99 144.25,-167 145.74,-165.37 147.34,-163.85 149.03,-162.43"/>
<polygon fill="#63b8ff" stroke="#63b8ff" points="150.69,-165.54 156.91,-156.97 146.7,-159.78 150.69,-165.54"/>
</a>
</g>
</g>
<!-- Node24 -->
<g id="Node000024" class="node">
<title>Node24</title>
<g id="a_Node000024"><a xlink:href="group__bme688__base__driver.html#ga505dc892644870e991baaa3dc733f1bf" target="_top" xlink:title="enable or disable run gas">
<polygon fill="white" stroke="#666666" points="269,-108 160,-108 160,-88 269,-88 269,-108"/>
<text xml:space="preserve" text-anchor="middle" x="214.5" y="-94.5" font-family="Helvetica,sans-Serif" font-size="10.00">bme688_set_run_gas</text>
</a>
</g>
</g>
<!-- Node1&#45;&gt;Node24 -->
<g id="edge23_Node000001_Node000024" class="edge">
<title>Node1&#45;&gt;Node24</title>
<g id="a_edge23_Node000001_Node000024"><a xlink:title=" ">
<path fill="none" stroke="#63b8ff" d="M56.05,-497.79C61.31,-442.02 89.12,-174.59 144.25,-117 146,-115.17 147.91,-113.51 149.94,-112.01"/>
<polygon fill="#63b8ff" stroke="#63b8ff" points="151.38,-115.23 158.21,-107.13 147.82,-109.2 151.38,-115.23"/>
</a>
</g>
</g>
<!-- Node25 -->
<g id="Node000025" class="node">
<title>Node25</title>
<g id="a_Node000025"><a xlink:href="group__bme688__base__driver.html#ga64e142b37dbf5f9a8c2be44604d81c16" target="_top" xlink:title="set spi wire">
<polygon fill="white" stroke="#666666" points="269.75,-70 159.25,-70 159.25,-50 269.75,-50 269.75,-70"/>
<text xml:space="preserve" text-anchor="middle" x="214.5" y="-56.5" font-family="Helvetica,sans-Serif" font-size="10.00">bme688_set_spi_wire</text>
</a>
</g>
</g>
<!-- Node1&#45;&gt;Node25 -->
<g id="edge24_Node000001_Node000025" class="edge">
<title>Node1&#45;&gt;Node25</title>
<g id="a_edge24_Node000001_Node000025"><a xlink:title=" ">
<path fill="none" stroke="#63b8ff" d="M55.84,-497.6C60.15,-438.24 84.37,-142.77 144.25,-79 145.79,-77.36 147.45,-75.86 149.21,-74.49"/>
<polygon fill="#63b8ff" stroke="#63b8ff" points="150.79,-77.63 157.46,-69.4 147.12,-71.67 150.79,-77.63"/>
</a>
</g>
</g>
<!-- Node26 -->
<g id="Node000026" class="node">
<title>Node26</title>
<g id="a_Node000026"><a xlink:href="group__bme688__base__driver.html#ga3583f4268d03e5c2539e36727e91605a" target="_top" xlink:title="set temperature oversampling">
<polygon fill="white" stroke="#666666" points="277.62,-32 151.38,-32 151.38,0 277.62,0 277.62,-32"/>
<text xml:space="preserve" text-anchor="start" x="159.38" y="-18.5" font-family="Helvetica,sans-Serif" font-size="10.00">bme688_set_temperature</text>
<text xml:space="preserve" text-anchor="middle" x="214.5" y="-6.5" font-family="Helvetica,sans-Serif" font-size="10.00">_oversampling</text>
</a>
</g>
</g>
<!-- Node1&#45;&gt;Node26 -->
<g id="edge25_Node000001_Node000026" class="edge">
<title>Node1&#45;&gt;Node26</title>
<g id="a_edge25_Node000001_Node000026"><a xlink:title=" ">
<path fill="none" stroke="#63b8ff" d="M55.74,-497.58C59.6,-435.41 82.36,-113.52 144.25,-41 144.6,-40.59 144.96,-40.18 145.33,-39.78"/>
<polygon fill="#63b8ff" stroke="#63b8ff" points="147.53,-42.51 152.81,-33.33 142.95,-37.21 147.53,-42.51"/>
</a>
</g>
</g>
</g>
</svg>
