<?xml version="1.0" encoding="UTF-8" standalone="no"?>
<!DOCTYPE svg PUBLIC "-//W3C//DTD SVG 1.1//EN"
 "http://www.w3.org/Graphics/SVG/1.1/DTD/svg11.dtd">
<!-- Generated by graphviz version 14.1.1 (20251213.1925)
 -->
<!-- Title: bme688_gas_read Pages: 1 -->
<svg width="273pt" height="254pt"
 viewBox="0.00 0.00 273.00 254.00" xmlns="http://www.w3.org/2000/svg" xmlns:xlink="http://www.w3.org/1999/xlink">
<g id="graph0" class="graph" transform="scale(1 1) rotate(0) translate(4 250)">
<title>bme688_gas_read</title>
<!-- Node1 -->
<g id="Node000001" class="node">
<title>Node1</title>
<g id="a_Node000001"><a xlink:title="gas example read">
<polygon fill="#999999" stroke="#666666" points="95.5,-130 0,-130 0,-110 95.5,-110 95.5,-130"/>
<text xml:space="preserve" text-anchor="middle" x="47.75" y="-116.5" font-family="Helvetica,sans-Serif" font-size="10.00">bme688_gas_read</text>
</a>
</g>
</g>
<!-- Node2 -->
<g id="Node000002" class="node">
<title>Node2</title>
<g id="a_Node000002"><a xlink:href="group__bme688__base__driver.html#ga88e8d72ede08e575e002f7c0f31e8b18" target="_top" xlink:title="convert the gas wait to the register raw data">
<polygon fill="white" stroke="#666666" points="264.12,-246 131.88,-246 131.88,-214 264.12,-214 264.12,-246"/>
<text xml:space="preserve" text-anchor="start" x="139.88" y="-232.5" font-family="Helvetica,sans-Serif" font-size="10.00">bme688_gas_wait_convert</text>
<text xml:space="preserve" text-anchor="middle" x="198" y="-220.5" font-family="Helvetica,sans-Serif" font-size="10.00">_to_register</text>
</a>
</g>
</g>
<!-- Node1&#45;&gt;Node2 -->
<g id="edge1_Node000001_Node000002" class="edge">
<title>Node1&#45;&gt;Node2</title>
<g id="a_edge1_Node000001_Node000002"><a xlink:title=" ">
<path fill="none" stroke="#63b8ff" d="M56.32,-130.3C69.69,-147.86 99.15,-183.73 131.5,-205 133.29,-206.18 135.15,-207.31 137.05,-208.41"/>
<polygon fill="#63b8ff" stroke="#63b8ff" points="135.04,-211.3 145.53,-212.81 138.26,-205.09 135.04,-211.3"/>
</a>
</g>
</g>
<!-- Node3 -->
<g id="Node000003" class="node">
<title>Node3</title>
<g id="a_Node000003"><a xlink:href="group__bme688__base__driver.html#ga2d9738da7ff3989f58e6a2c10848aa83" target="_top" xlink:title="read the temperature pressure humidity and gas resistance">
<polygon fill="white" stroke="#666666" points="235.25,-196 160.75,-196 160.75,-176 235.25,-176 235.25,-196"/>
<text xml:space="preserve" text-anchor="middle" x="198" y="-182.5" font-family="Helvetica,sans-Serif" font-size="10.00">bme688_read</text>
</a>
</g>
</g>
<!-- Node1&#45;&gt;Node3 -->
<g id="edge2_Node000001_Node000003" class="edge">
<title>Node1&#45;&gt;Node3</title>
<g id="a_edge2_Node000001_Node000003"><a xlink:title=" ">
<path fill="none" stroke="#63b8ff" d="M64.35,-130.34C80.58,-140.73 106.99,-156.66 131.5,-167 137.23,-169.42 143.36,-171.64 149.49,-173.65"/>
<polygon fill="#63b8ff" stroke="#63b8ff" points="148.4,-176.98 158.99,-176.59 150.47,-170.29 148.4,-176.98"/>
</a>
</g>
</g>
<!-- Node4 -->
<g id="Node000004" class="node">
<title>Node4</title>
<g id="a_Node000004"><a xlink:href="group__bme688__base__driver.html#ga8e098e1b69b85d1fa273d09a2ec52894" target="_top" xlink:title="convert the resistance heater to the register raw data">
<polygon fill="white" stroke="#666666" points="264.5,-158 131.5,-158 131.5,-126 264.5,-126 264.5,-158"/>
<text xml:space="preserve" text-anchor="start" x="139.5" y="-144.5" font-family="Helvetica,sans-Serif" font-size="10.00">bme688_resistance_heater</text>
<text xml:space="preserve" text-anchor="middle" x="198" y="-132.5" font-family="Helvetica,sans-Serif" font-size="10.00">_convert_to_register</text>
</a>
</g>
</g>
<!-- Node1&#45;&gt;Node4 -->
<g id="edge3_Node000001_Node000004" class="edge">
<title>Node1&#45;&gt;Node4</title>
<g id="a_edge3_Node000001_Node000004"><a xlink:title=" ">
<path fill="none" stroke="#63b8ff" d="M95.66,-126.96C103.41,-128.11 111.63,-129.33 119.9,-130.56"/>
<polygon fill="#63b8ff" stroke="#63b8ff" points="119.26,-134 129.67,-132.01 120.29,-127.08 119.26,-134"/>
</a>
</g>
</g>
<!-- Node5 -->
<g id="Node000005" class="node">
<title>Node5</title>
<g id="a_Node000005"><a xlink:href="group__bme688__base__driver.html#ga8bbb287a12e8cf7a5cb98ab0c741c102" target="_top" xlink:title="set gas wait">
<polygon fill="white" stroke="#666666" points="254.75,-108 141.25,-108 141.25,-88 254.75,-88 254.75,-108"/>
<text xml:space="preserve" text-anchor="middle" x="198" y="-94.5" font-family="Helvetica,sans-Serif" font-size="10.00">bme688_set_gas_wait</text>
</a>
</g>
</g>
<!-- Node1&#45;&gt;Node5 -->
<g id="edge4_Node000001_Node000005" class="edge">
<title>Node1&#45;&gt;Node5</title>
<g id="a_edge4_Node000001_Node000005"><a xlink:title=" ">
<path fill="none" stroke="#63b8ff" d="M95.66,-113.04C106.41,-111.44 118.05,-109.72 129.48,-108.02"/>
<polygon fill="#63b8ff" stroke="#63b8ff" points="129.92,-111.49 139.3,-106.56 128.89,-104.57 129.92,-111.49"/>
</a>
</g>
</g>
<!-- Node6 -->
<g id="Node000006" class="node">
<title>Node6</title>
<g id="a_Node000006"><a xlink:href="group__bme688__base__driver.html#ga26dd82632bb92026ce36ea4bec2dfbe5" target="_top" xlink:title="set heater profile">
<polygon fill="white" stroke="#666666" points="264.5,-70 131.5,-70 131.5,-50 264.5,-50 264.5,-70"/>
<text xml:space="preserve" text-anchor="middle" x="198" y="-56.5" font-family="Helvetica,sans-Serif" font-size="10.00">bme688_set_heater_profile</text>
</a>
</g>
</g>
<!-- Node1&#45;&gt;Node6 -->
<g id="edge5_Node000001_Node000006" class="edge">
<title>Node1&#45;&gt;Node6</title>
<g id="a_edge5_Node000001_Node000006"><a xlink:title=" ">
<path fill="none" stroke="#63b8ff" d="M67.38,-109.57C83.87,-100.64 108.79,-87.84 131.5,-79 136.16,-77.19 141.06,-75.46 146,-73.83"/>
<polygon fill="#63b8ff" stroke="#63b8ff" points="146.85,-77.23 155.34,-70.89 144.76,-70.55 146.85,-77.23"/>
</a>
</g>
</g>
<!-- Node7 -->
<g id="Node000007" class="node">
<title>Node7</title>
<g id="a_Node000007"><a xlink:href="group__bme688__base__driver.html#gaa72c072f3818ea6dacca687defcd433b" target="_top" xlink:title="set resistance heater">
<polygon fill="white" stroke="#666666" points="257.75,-32 138.25,-32 138.25,0 257.75,0 257.75,-32"/>
<text xml:space="preserve" text-anchor="start" x="146.25" y="-18.5" font-family="Helvetica,sans-Serif" font-size="10.00">bme688_set_resistance</text>
<text xml:space="preserve" text-anchor="middle" x="198" y="-6.5" font-family="Helvetica,sans-Serif" font-size="10.00">_heater</text>
</a>
</g>
</g>
<!-- Node1&#45;&gt;Node7 -->
<g id="edge6_Node000001_Node000007" class="edge">
<title>Node1&#45;&gt;Node7</title>
<g id="a_edge6_Node000001_Node000007"><a xlink:title=" ">
<path fill="none" stroke="#63b8ff" d="M57.15,-109.67C71.05,-93.14 100.43,-60.62 131.5,-41 133.47,-39.76 135.51,-38.56 137.6,-37.41"/>
<polygon fill="#63b8ff" stroke="#63b8ff" points="138.95,-40.65 146.32,-33.03 135.81,-34.39 138.95,-40.65"/>
</a>
</g>
</g>
</g>
</svg>
