<?xml version="1.0" encoding="UTF-8" standalone="no"?>
<!DOCTYPE svg PUBLIC "-//W3C//DTD SVG 1.1//EN"
 "http://www.w3.org/Graphics/SVG/1.1/DTD/svg11.dtd">
<!-- Generated by graphviz version 14.1.1 (20251213.1925)
 -->
<!-- Title: bme688_parallel_deinit Pages: 1 -->
<svg width="276pt" height="104pt"
 viewBox="0.00 0.00 276.00 104.00" xmlns="http://www.w3.org/2000/svg" xmlns:xlink="http://www.w3.org/1999/xlink">
<g id="graph0" class="graph" transform="scale(1 1) rotate(0) translate(4 100)">
<title>bme688_parallel_deinit</title>
<!-- Node1 -->
<g id="Node000001" class="node">
<title>Node1</title>
<g id="a_Node000001"><a xlink:title="parallel example deinit">
<polygon fill="#999999" stroke="#666666" points="115,-58 0,-58 0,-38 115,-38 115,-58"/>
<text xml:space="preserve" text-anchor="middle" x="57.5" y="-44.5" font-family="Helvetica,sans-Serif" font-size="10.00">bme688_parallel_deinit</text>
</a>
</g>
</g>
<!-- Node2 -->
<g id="Node000002" class="node">
<title>Node2</title>
<g id="a_Node000002"><a xlink:href="group__bme688__base__driver.html#gaa1ed2e75dcc1ee8174c43557c7f87694" target="_top" xlink:title="close the chip">
<polygon fill="white" stroke="#666666" points="249.12,-96 170.12,-96 170.12,-76 249.12,-76 249.12,-96"/>
<text xml:space="preserve" text-anchor="middle" x="209.62" y="-82.5" font-family="Helvetica,sans-Serif" font-size="10.00">bme688_deinit</text>
</a>
</g>
</g>
<!-- Node1&#45;&gt;Node2 -->
<g id="edge1_Node000001_Node000002" class="edge">
<title>Node1&#45;&gt;Node2</title>
<g id="a_edge1_Node000001_Node000002"><a xlink:title=" ">
<path fill="none" stroke="#63b8ff" d="M99.92,-58.48C118.13,-63.09 139.67,-68.55 158.75,-73.38"/>
<polygon fill="#63b8ff" stroke="#63b8ff" points="157.64,-76.71 168.2,-75.77 159.36,-69.92 157.64,-76.71"/>
</a>
</g>
</g>
<!-- Node3 -->
<g id="Node000003" class="node">
<title>Node3</title>
<g id="a_Node000003"><a xlink:href="group__bme688__base__driver.html#gad207445415770ef82a8c3602e32f115a" target="_top" xlink:title="enable or disable heater off">
<polygon fill="white" stroke="#666666" points="268.25,-58 151,-58 151,-38 268.25,-38 268.25,-58"/>
<text xml:space="preserve" text-anchor="middle" x="209.62" y="-44.5" font-family="Helvetica,sans-Serif" font-size="10.00">bme688_set_heater_off</text>
</a>
</g>
</g>
<!-- Node1&#45;&gt;Node3 -->
<g id="edge2_Node000001_Node000003" class="edge">
<title>Node1&#45;&gt;Node3</title>
<g id="a_edge2_Node000001_Node000003"><a xlink:title=" ">
<path fill="none" stroke="#63b8ff" d="M115.26,-48C123.1,-48 131.23,-48 139.27,-48"/>
<polygon fill="#63b8ff" stroke="#63b8ff" points="139.03,-51.5 149.03,-48 139.03,-44.5 139.03,-51.5"/>
</a>
</g>
</g>
<!-- Node4 -->
<g id="Node000004" class="node">
<title>Node4</title>
<g id="a_Node000004"><a xlink:href="group__bme688__base__driver.html#ga3a6d95d200d69c598498cf01de89b341" target="_top" xlink:title="set mode">
<polygon fill="white" stroke="#666666" points="258.88,-20 160.38,-20 160.38,0 258.88,0 258.88,-20"/>
<text xml:space="preserve" text-anchor="middle" x="209.62" y="-6.5" font-family="Helvetica,sans-Serif" font-size="10.00">bme688_set_mode</text>
</a>
</g>
</g>
<!-- Node1&#45;&gt;Node4 -->
<g id="edge3_Node000001_Node000004" class="edge">
<title>Node1&#45;&gt;Node4</title>
<g id="a_edge3_Node000001_Node000004"><a xlink:title=" ">
<path fill="none" stroke="#63b8ff" d="M99.92,-37.52C117.39,-33.09 137.94,-27.89 156.43,-23.21"/>
<polygon fill="#63b8ff" stroke="#63b8ff" points="157.04,-26.67 165.87,-20.82 155.32,-19.88 157.04,-26.67"/>
</a>
</g>
</g>
</g>
</svg>
